<svg width="4000" height="3000" viewBox="0 0 4000 3000" fill="none" xmlns="http://www.w3.org/2000/svg">
<path fill-rule="evenodd" clip-rule="evenodd" d="M741.448 442.631H3283.15C3371.56 442.631 3443.89 512.732 3443.89 598.423V2341.38H580.71V598.423C580.71 512.732 653.038 442.631 741.448 442.631ZM2012.3 511.07C1998.43 511.07 1987.19 521.962 1987.19 535.4C1987.19 548.838 1998.43 559.729 2012.3 559.729C2026.17 559.729 2037.42 548.838 2037.42 535.4C2037.42 521.962 2026.17 511.07 2012.3 511.07ZM739.604 651.981H3285V2190.45H739.604V651.981Z" fill="#373F47"/>
<path d="M3285 651.982H739.603V2190.45H3285V651.982Z" fill="#C0C0C0" stroke="black" stroke-width="0.66624" stroke-miterlimit="2.61313"/>
<path fill-rule="evenodd" clip-rule="evenodd" d="M315.002 2371.52H3685V2497.09C3685 2530.24 3657.88 2557.37 3624.72 2557.37H375.281C342.126 2557.37 315.002 2530.24 315.002 2497.09V2371.52Z" fill="#373F47"/>
<path fill-rule="evenodd" clip-rule="evenodd" d="M2076.72 2014.38C2070.86 2014.77 2067.32 2013 2065.25 2009.21C2062.8 2004.72 2060.61 2000.08 2058.63 1995.37C1937.92 1708.56 1815.46 1422.43 1700.17 1133.45C1690.08 1108.17 1681.53 1082.28 1672.51 1056.6C1668.03 1043.85 1668.14 1043.47 1681.11 1038C1728.85 1017.86 1776.68 997.903 1824.49 977.921C2057.18 880.706 2289.88 783.497 2522.57 686.282C2536.91 680.29 2551.17 674.085 2565.57 668.241C2579.29 662.681 2582.19 663.836 2587.88 677.187C2616.81 745.107 2645.61 813.076 2674.53 880.996C2743.49 1042.97 2812.77 1204.81 2881.35 1366.92C2917.4 1452.16 2952.26 1537.89 2987.64 1623.4C2988.72 1626.02 2989.58 1628.74 2990.72 1631.33C2993.35 1637.26 2991.36 1640.98 2985.39 1643.33C2977.36 1646.49 2969.46 1649.99 2961.47 1653.26C2695.61 1762.24 2429.75 1871.23 2163.87 1980.14C2138.28 1990.62 2112.51 2000.64 2086.81 2010.83C2083.09 2012.3 2079.25 2013.49 2076.72 2014.38Z" fill="#A89A45"/>
<path fill-rule="evenodd" clip-rule="evenodd" d="M1751.41 1443.76L1677.6 1307.26C1691.91 1286.98 1700.36 1262.36 1700.36 1235.78V938.91C1700.36 870.5 1644.39 814.529 1575.97 814.529H938.387C869.976 814.529 814 870.5 814 938.91V1235.78C814 1304.2 869.976 1360.17 938.387 1360.17H1569.29L1751.41 1443.76Z" fill="#FF0057"/>
<path fill-rule="evenodd" clip-rule="evenodd" d="M1007.95 947.27H1415.46C1426.73 947.27 1435.84 956.393 1435.84 967.648C1435.84 978.899 1426.73 988.021 1415.46 988.021H1007.95C996.696 988.021 987.573 978.899 987.573 967.648C987.573 956.393 996.696 947.27 1007.95 947.27Z" fill="white"/>
<path fill-rule="evenodd" clip-rule="evenodd" d="M1006.63 1056.58H1340.13C1350.67 1056.58 1359.21 1065.11 1359.21 1075.64C1359.21 1086.17 1350.67 1094.7 1340.13 1094.7H1006.63C996.109 1094.7 987.578 1086.17 987.578 1075.64C987.578 1065.11 996.109 1056.58 1006.63 1056.58Z" fill="white"/>
<path fill-rule="evenodd" clip-rule="evenodd" d="M1006.63 1164.6H1219.45C1229.97 1164.6 1238.5 1173.09 1238.5 1183.63C1238.5 1194.18 1229.97 1202.72 1219.45 1202.72H1006.63C996.109 1202.72 987.578 1194.18 987.578 1183.63C987.578 1173.09 996.109 1164.6 1006.63 1164.6Z" fill="white"/>
<path fill-rule="evenodd" clip-rule="evenodd" d="M1284.3 1164.6H1427.2C1434.26 1164.6 1439.99 1173.09 1439.99 1183.63C1439.99 1194.18 1434.26 1202.72 1427.2 1202.72H1284.3C1277.25 1202.72 1271.52 1194.18 1271.52 1183.63C1271.52 1173.09 1277.25 1164.6 1284.3 1164.6Z" fill="white"/>
<path fill-rule="evenodd" clip-rule="evenodd" d="M1867.88 1256.12C2118.17 1273.32 2364.6 1290.24 2613.03 1307.3C2609.87 1137.68 2607.43 971.458 2603.85 805.164C2592.02 805.164 2583.33 804.757 2574.69 805.235C2538.47 807.252 2502.27 809.736 2466.05 811.686C2397.21 815.384 2328.33 818.659 2259.5 822.441C2168.21 827.457 2076.93 832.785 1985.65 837.986C1953.26 839.83 1920.87 841.688 1886.89 843.629C1880.54 981.521 1874.27 1117.45 1867.88 1256.12ZM2595.64 786.384C2609.48 785.661 2621.2 796.554 2621.76 810.392C2622.53 829.388 2623.28 847.263 2623.57 865.152C2625.45 978.351 2627.01 1091.56 2628.84 1204.76C2629.37 1237.4 2630.51 1270.03 2631.24 1302.67C2631.71 1323.45 2628.04 1326.97 2607.37 1325.55C2481.35 1316.91 2355.33 1308.21 2229.32 1299.52C2124.3 1292.29 2019.29 1285.07 1914.28 1277.79C1899.07 1276.74 1883.87 1275.57 1868.69 1274.17C1852.34 1272.64 1849.91 1270.64 1850.37 1253.98C1851.27 1221.34 1853.08 1188.74 1854.59 1156.12C1859.29 1054.66 1863.95 953.185 1868.79 851.729C1869.96 827.266 1871.21 826.343 1895.19 825.054C2004.66 819.159 2114.13 813.271 2223.59 807.308C2329.43 801.545 2435.26 795.714 2541.09 789.844C2559.21 788.841 2577.31 787.387 2595.42 786.396C2595.5 786.393 2595.57 786.389 2595.64 786.384ZM2447.29 1041.86C2454.31 1049.39 2454.28 1061.08 2446.99 1068.36C2445.79 1069.56 2444.58 1070.71 2443.33 1071.81C2396.67 1112.78 2349.89 1153.62 2303.12 1194.45C2299.83 1197.33 2296.67 1201.1 2292.76 1202.36C2288.72 1203.67 2282.07 1204.24 2279.7 1201.93C2274.99 1197.34 2276.4 1191.22 2282.12 1187.07C2284.48 1185.37 2287.34 1184.29 2289.51 1182.4C2337.36 1140.62 2385.14 1098.78 2434.71 1055.4C2422.43 1043.16 2411.28 1035.06 2398.19 1023.04C2366.46 993.897 2345.28 969.735 2306.23 934.74C2302.69 931.564 2299.73 927.946 2296.23 924.82C2291.07 920.216 2285.89 915.037 2292.57 908.48C2299.24 901.941 2304.57 907.71 2309.36 912.165C2327.55 929.078 2345.62 946.114 2363.74 963.091C2389.86 987.561 2416.05 1011.95 2442.05 1036.55C2443.84 1038.24 2445.56 1040.01 2447.29 1041.86ZM1991.47 1076.85C2000.27 1082.9 2006.33 1087.67 2012.95 1091.51C2061.72 1119.75 2110.58 1147.8 2159.44 1175.89C2162.56 1177.69 2165.75 1179.41 2168.93 1181.11C2174.59 1184.16 2179.16 1188.84 2174.72 1194.71C2172.71 1197.38 2165.86 1197.56 2161.48 1196.92C2157.45 1196.33 2153.75 1193.22 2150 1191.06C2099.24 1161.95 2048.49 1132.81 1997.75 1103.65C1994 1101.49 1989.99 1099.56 1986.75 1096.75C1973.32 1085.07 1972.04 1070.55 1983.89 1057.7C2030.47 1007.18 2077.27 956.87 2124.04 906.536C2126.48 903.922 2129.05 900.717 2132.19 899.7C2135.05 898.771 2139.85 899.341 2141.77 901.274C2143.65 903.159 2144.4 908.404 2143.1 910.765C2140.37 915.711 2136.14 919.888 2132.22 924.108C2090.93 968.669 2049.56 1013.17 2008.25 1057.72C2003.39 1062.97 1998.81 1068.47 1991.47 1076.85Z" fill="black"/>
<path d="M2177.3 1519.73C2177.3 1434.82 2108.47 1365.99 2023.56 1365.99C1938.65 1365.99 1869.82 1434.82 1869.82 1519.73V1848.18C1869.82 1933.09 1938.65 2001.93 2023.56 2001.93C2108.47 2001.93 2177.3 1933.09 2177.3 1848.18V1519.73Z" fill="#B6CCFC"/>
<path fill-rule="evenodd" clip-rule="evenodd" d="M2177.3 1519.73C2177.3 1434.82 2108.47 1365.99 2023.56 1365.99C1938.65 1365.99 1869.82 1434.82 1869.82 1519.73V1848.18C1869.82 1933.09 1938.65 2001.93 2023.56 2001.93C2108.47 2001.93 2177.3 1933.09 2177.3 1848.18V1519.73ZM1904.78 1517.77C1905.83 1453.06 1958.61 1400.93 2023.56 1400.93C2089.17 1400.93 2142.36 1454.12 2142.36 1519.73V1848.18L2142.35 1850.15C2141.3 1914.85 2088.52 1966.98 2023.56 1966.98C1957.95 1966.98 1904.76 1913.79 1904.76 1848.18V1519.73L1904.78 1517.77Z" fill="#066952"/>
<path fill-rule="evenodd" clip-rule="evenodd" d="M1848.85 1514.49C1845 1514.49 1841.87 1517.62 1841.87 1521.48V1846.44C1841.87 1850.3 1845 1853.42 1848.85 1853.42H1890.78C1894.64 1853.42 1897.77 1850.3 1897.77 1846.44V1788.78H1917.86C1929.93 1788.78 1939.7 1779.01 1939.7 1766.94C1939.7 1754.88 1929.93 1745.11 1917.86 1745.11H1897.77V1706.67H1917.86C1929.93 1706.67 1939.7 1696.89 1939.7 1684.83C1939.7 1672.77 1929.93 1662.99 1917.86 1662.99H1897.77V1621.06H1917.86C1929.93 1621.06 1939.7 1611.29 1939.7 1599.23C1939.7 1587.16 1929.93 1577.39 1917.86 1577.39H1897.77V1521.48C1897.77 1517.62 1894.64 1514.49 1890.78 1514.49H1848.85Z" fill="#066952"/>
<path fill-rule="evenodd" clip-rule="evenodd" d="M2198.27 1514.49C2202.13 1514.49 2205.26 1517.62 2205.26 1521.48V1846.44C2205.26 1850.3 2202.13 1853.42 2198.27 1853.42H2156.34C2152.48 1853.42 2149.35 1850.3 2149.35 1846.44V1788.78H2129.26C2117.2 1788.78 2107.42 1779.01 2107.42 1766.94C2107.42 1754.88 2117.2 1745.11 2129.26 1745.11H2149.35V1706.67H2129.26C2117.2 1706.67 2107.42 1696.89 2107.42 1684.83C2107.42 1672.77 2117.2 1662.99 2129.26 1662.99H2149.35V1621.06H2129.26C2117.2 1621.06 2107.42 1611.29 2107.42 1599.23C2107.42 1587.16 2117.2 1577.39 2129.26 1577.39H2149.35V1521.48C2149.35 1517.62 2152.48 1514.49 2156.34 1514.49H2198.27Z" fill="#066952"/>
<path d="M2253.57 1699.68C2263.06 1699.68 2270.78 1707.24 2271.04 1716.66L2271.04 1717.15L2271.04 1739.54L2271.26 1745.51C2277.93 1952.18 2196.03 2060.86 2028.42 2063.04L2023.26 2063.07C1851.94 2063.07 1768.74 1949.32 1775.92 1730.95L1776.15 1724.68L1776.15 1717.15C1776.15 1707.67 1783.71 1699.95 1793.13 1699.69L1793.62 1699.68C1803.11 1699.68 1810.83 1707.24 1811.08 1716.66L1811.09 1717.15V1725.37L1811.08 1725.73C1802.71 1930.47 1872.67 2028.13 2023.26 2028.13C2172.59 2028.13 2242.62 1937.14 2236.33 1746.38L2236.12 1740.57L2236.1 1740.22V1717.15C2236.1 1707.5 2243.92 1699.68 2253.57 1699.68Z" fill="#F52728"/>
<path fill-rule="evenodd" clip-rule="evenodd" d="M1652.98 2189.73C1652.98 2189.73 1801.09 2059.58 2022.25 2059.58C2243.42 2059.58 2394.15 2189.73 2394.15 2189.73H1652.98Z" fill="#F52728"/>
<g clip-path="url(#clip0_0_1)">
<path fill-rule="evenodd" clip-rule="evenodd" d="M1538.29 1849.13C1538.57 1843.06 1538.85 1836.94 1539.14 1830.75C1542.02 1828.91 1544.76 1827.18 1547.42 1825.5C1552.94 1822.02 1558.07 1818.79 1563.09 1815.39C1594.29 1794.26 1620.45 1768.33 1638.84 1735.16C1675.72 1668.59 1663.9 1594.97 1608.07 1543.14C1588.89 1525.33 1566.97 1511.69 1542.83 1501.8C1493.47 1481.59 1442.18 1475.03 1389.08 1480.2C1336.7 1485.3 1287.7 1500.29 1242.67 1527.55C1205.44 1550.08 1174.44 1578.92 1153.52 1617.6C1118.82 1681.76 1129.16 1751.95 1180.75 1803.34C1198.91 1821.41 1219.89 1835.37 1243.21 1845.82C1303.13 1872.66 1365.64 1877.85 1429.87 1867.32C1439.33 1865.77 1448.71 1863.77 1457.95 1861.81C1462.12 1860.92 1466.26 1860.04 1470.36 1859.22C1473.15 1862.94 1475.87 1866.58 1478.54 1870.15C1484.64 1878.31 1490.48 1886.13 1496.4 1893.9C1497.66 1895.57 1498.92 1897.24 1500.18 1898.91C1505.35 1905.78 1510.53 1912.66 1516.27 1919.04C1518.88 1921.94 1524.34 1924.96 1527.35 1924.07C1530.44 1923.15 1533.26 1917.78 1534.17 1913.89C1535.47 1908.34 1535.74 1902.52 1536.01 1896.75C1536.05 1895.77 1536.1 1894.79 1536.15 1893.81C1536.91 1879.02 1537.6 1864.23 1538.29 1849.13ZM1522.83 1880.68C1522.42 1887.38 1521.99 1894.33 1521.6 1901.66C1506.42 1885.28 1495.06 1869.26 1483.84 1853.13C1479.39 1846.74 1471.43 1843.79 1463.88 1845.74C1457.2 1847.47 1450.57 1849.16 1443.88 1850.58C1375.9 1864.99 1309.6 1861.09 1245.86 1831.63C1224.23 1821.64 1204.84 1808.23 1188.22 1791.03C1144.4 1745.69 1135.07 1685.63 1163.11 1629.24C1177.15 1601.01 1197.37 1577.79 1222.2 1558.67C1273.1 1519.47 1331.02 1499.18 1394.98 1493.85C1447.17 1489.49 1497.06 1496.54 1544.82 1517.97C1567.63 1528.21 1587.98 1542.12 1605.39 1560.16C1648.27 1604.59 1657.97 1663.05 1631.39 1718.89C1611.59 1760.51 1579.35 1790.56 1540 1813.08C1529.34 1819.18 1524.95 1825.95 1524.79 1837.86C1524.61 1851.7 1523.76 1865.54 1522.83 1880.68Z" fill="black"/>
<path d="M1124.58 1873.31C1128.62 1870.35 1132.84 1867.25 1137.34 1863.98C1137.54 1867 1137.74 1869.72 1137.94 1872.24C1138.31 1877.17 1138.63 1881.31 1138.68 1885.46C1138.8 1895.72 1138.85 1905.98 1138.91 1916.25C1138.97 1928 1139.03 1939.75 1139.19 1951.51C1139.21 1952.67 1139.14 1953.9 1139.06 1955.15C1138.75 1960.5 1138.42 1966.19 1144.83 1968.24C1151.21 1970.28 1155.12 1965.2 1158.58 1960.72C1159.08 1960.06 1159.58 1959.42 1160.07 1958.81C1177.56 1937.28 1194.79 1915.55 1212.02 1893.81C1213.54 1891.89 1215.07 1889.97 1216.59 1888.05C1216.86 1887.71 1217.14 1887.36 1217.43 1887C1220.42 1883.33 1224.04 1878.89 1219.21 1875.07C1214.5 1871.34 1211.79 1875.35 1209.42 1878.87C1208.86 1879.69 1208.33 1880.48 1207.79 1881.14C1197.49 1893.82 1187.3 1906.61 1177.12 1919.39C1171.91 1925.93 1166.71 1932.46 1161.48 1938.98C1159.78 1941.11 1157.97 1943.16 1155.71 1945.73C1154.49 1947.12 1153.14 1948.66 1151.6 1950.44C1151.41 1948.51 1151.25 1947 1151.11 1945.75C1150.88 1943.62 1150.73 1942.26 1150.7 1940.89C1150.55 1933.14 1150.42 1925.39 1150.29 1917.64C1150.05 1903.38 1149.81 1889.12 1149.43 1874.86C1149.41 1873.97 1149.4 1873.06 1149.39 1872.15C1149.32 1864.73 1149.24 1856.83 1141.21 1853.19C1134.94 1850.34 1130.32 1854.18 1125.82 1857.91C1124.57 1858.95 1123.33 1859.98 1122.07 1860.85C1111.25 1868.36 1100.44 1875.89 1089.64 1883.42C1075.74 1893.11 1061.83 1902.8 1047.9 1912.44C1045.22 1914.29 1042.38 1915.9 1039.53 1917.5C1038.24 1918.22 1036.95 1918.95 1035.68 1919.7C1035.13 1919.25 1034.85 1919.02 1034.58 1918.79C1034.3 1918.56 1034.02 1918.33 1033.47 1917.88C1035.12 1912.92 1036.77 1907.96 1038.42 1903C1042.22 1891.58 1046.02 1880.16 1049.87 1868.76C1052.71 1860.37 1055.6 1852 1058.49 1843.62C1064.56 1826.03 1070.64 1808.43 1076.19 1790.66C1081.58 1773.4 1076.46 1766.99 1058.51 1765.54C1051.88 1765 1045.26 1764.5 1038.63 1763.99C1022.1 1762.72 1005.58 1761.46 989.098 1759.76C967.221 1757.5 945.507 1753.96 921.872 1747.45C923.596 1746.5 925.022 1745.64 926.272 1744.9C928.523 1743.55 930.201 1742.55 932.008 1741.92C938.959 1739.51 945.905 1737.08 952.851 1734.66C976.403 1726.42 999.957 1718.19 1023.73 1710.64C1031.81 1708.08 1040.22 1706.55 1048.64 1705.03C1053.68 1704.12 1058.72 1703.21 1063.7 1702.07C1063.97 1702.01 1064.24 1701.91 1064.5 1701.79C1068.05 1700.17 1068.4 1695.17 1065.48 1692.56C1064.88 1692.03 1064.27 1691.67 1063.64 1691.6C1058.77 1691.13 1053.67 1691.93 1048.8 1692.9C1005.31 1701.6 963.752 1716.47 922.895 1733.47C918.313 1735.37 913.709 1737.76 909.905 1740.9C903.872 1745.87 904.827 1752.74 911.731 1756.48C914.492 1757.98 917.671 1758.87 920.768 1759.53C923.273 1760.07 925.776 1760.63 928.28 1761.19C936.008 1762.93 943.744 1764.67 951.57 1765.59C974.491 1768.29 997.443 1770.71 1020.4 1773.12C1030.47 1774.18 1040.55 1775.24 1050.62 1776.33C1054.08 1776.7 1057.53 1777.15 1061.43 1777.65C1063.42 1777.91 1065.53 1778.18 1067.82 1778.47C1066.95 1781.5 1066.17 1784.35 1065.43 1787.06C1063.94 1792.52 1062.59 1797.45 1060.95 1802.28C1054 1822.76 1046.98 1843.23 1039.96 1863.69C1034.95 1878.31 1029.93 1892.94 1024.94 1907.57C1024.67 1908.35 1024.4 1909.14 1024.12 1909.93C1022.71 1913.92 1021.28 1917.97 1020.92 1922.07C1020.6 1925.74 1021.34 1931.13 1023.72 1932.96C1026.11 1934.8 1031.55 1934.23 1034.89 1932.84C1041.14 1930.23 1047.03 1926.56 1052.74 1922.8C1068.74 1912.26 1084.67 1901.61 1100.43 1890.7C1108.3 1885.25 1116.03 1879.58 1124.58 1873.31Z" fill="black"/>
</g>
<path fill-rule="evenodd" clip-rule="evenodd" d="M3164.79 1719.3C3164.79 1902.63 3016.03 2051.29 2832.45 2051.29C2786.17 2051.29 2742.2 2041.78 2702.23 2024.73L2543.04 2097.74L2613.01 1968.44C2543.84 1907.66 2500.21 1818.64 2500.21 1719.3C2500.21 1535.86 2648.98 1387.2 2832.45 1387.2C3016.03 1387.2 3164.79 1535.86 3164.79 1719.3Z" fill="#FFB201"/>
<path d="M2652.21 1609.91H2998.64C3002.55 1609.91 3005.71 1613.07 3005.71 1616.98V1635.83C3005.71 1639.74 3002.55 1642.9 2998.64 1642.9H2652.21C2648.31 1642.9 2645.14 1639.74 2645.14 1635.83V1616.98C2645.14 1613.07 2648.31 1609.91 2652.21 1609.91Z" fill="white"/>
<path d="M2693.45 1703H2998.64C3002.55 1703 3005.71 1706.16 3005.71 1710.07V1728.92C3005.71 1732.83 3002.55 1735.99 2998.64 1735.99H2693.45C2689.55 1735.99 2686.38 1732.83 2686.38 1728.92V1710.07C2686.38 1706.16 2689.55 1703 2693.45 1703Z" fill="white"/>
<path d="M2797.15 1794.91H2998.64C3002.55 1794.91 3005.71 1798.07 3005.71 1801.98V1820.83C3005.71 1824.74 3002.55 1827.9 2998.64 1827.9H2797.15C2793.24 1827.9 2790.08 1824.74 2790.08 1820.83V1801.98C2790.08 1798.07 2793.24 1794.91 2797.15 1794.91Z" fill="white"/>
<defs>
<clipPath id="clip0_0_1">
<rect width="754.138" height="498.288" fill="white" transform="translate(905.911 1477.93)"/>
</clipPath>
</defs>
</svg>
