<svg width="4000" height="3000" viewBox="0 0 4000 3000" fill="none" xmlns="http://www.w3.org/2000/svg">
<path fill-rule="evenodd" clip-rule="evenodd" d="M741.448 442.631H3283.15C3371.56 442.631 3443.89 512.732 3443.89 598.423V2341.38H580.71V598.423C580.71 512.732 653.038 442.631 741.448 442.631ZM2012.3 511.07C1998.43 511.07 1987.19 521.962 1987.19 535.4C1987.19 548.838 1998.43 559.729 2012.3 559.729C2026.17 559.729 2037.42 548.838 2037.42 535.4C2037.42 521.962 2026.17 511.07 2012.3 511.07ZM739.604 651.981H3285V2190.45H739.604V651.981Z" fill="#373F47"/>
<path d="M3285 651.982H739.603V2190.45H3285V651.982Z" fill="#C0C0C0" stroke="black" stroke-width="0.66624" stroke-miterlimit="2.61313"/>
<path fill-rule="evenodd" clip-rule="evenodd" d="M315.002 2371.52H3685V2497.09C3685 2530.24 3657.88 2557.37 3624.72 2557.37H375.281C342.126 2557.37 315.002 2530.24 315.002 2497.09V2371.52Z" fill="#373F47"/>
<path opacity="0.2" fill-rule="evenodd" clip-rule="evenodd" d="M1941.35 784.493L1388.25 783.305C1352.71 783.225 1330.41 821.499 1348.11 852.182L1623.63 1329.68L1899.15 1807.18C1916.86 1837.88 1961.3 1837.97 1979.14 1807.36L2256.72 1331.04L2534.3 854.731C2552.14 824.112 2530 785.753 2494.46 785.674L1941.35 784.493Z" fill="#50E3FF"/>
<g opacity="0.644">
<path d="M2568.68 784.642C2570.28 783.099 2572.69 782.886 2574.51 784.029L2575.17 784.522L2610.4 816.163L2643.47 786.341C2645.05 784.914 2647.36 784.732 2649.13 785.809L2649.76 786.272L2686.4 817.889L2715.1 788.308C2716.74 786.612 2719.35 786.405 2721.23 787.714L2721.82 788.206C2723.52 789.852 2723.73 792.454 2722.42 794.332L2721.92 794.929L2690.1 827.731C2688.54 829.338 2686.11 829.617 2684.25 828.503L2683.58 828.02L2646.72 796.214L2613.6 826.096C2611.99 827.544 2609.64 827.708 2607.87 826.584L2607.24 826.103L2572.11 794.553L2541.44 824.235C2539.75 825.878 2537.14 826.003 2535.3 824.635L2534.72 824.125C2533.08 822.426 2532.95 819.818 2534.32 817.982L2534.83 817.401L2568.68 784.642Z" fill="#26B6E3"/>
<path fill-rule="evenodd" clip-rule="evenodd" d="M2239.4 962.031C2250.07 950.428 2244.18 939.547 2232.58 933.828C2230.76 934.196 2228.62 934.615 2226.56 935.02C2224.52 934.016 2222.59 933.063 2220.72 932.139C2212.46 914.21 2195.12 918.976 2188.46 932.962C2182.49 935.857 2174.29 932.817 2169.16 939.099C2166.13 942.767 2164.95 946.969 2165.55 951.857C2166.1 956.392 2169.77 959.59 2170.22 964.212C2169.81 966.565 2168.2 968.479 2167.06 970.602C2161.04 981.836 2169.77 995.165 2181.78 993.375C2182.64 993.245 2183.5 993.136 2183.76 993.1C2190.29 994.905 2192.52 1000.23 2195.71 1004.85C2198.29 1005.71 2201.07 1006.41 2203.2 1008.18C2207.59 1006.99 2211.62 1005.89 2215.39 1004.88C2218.95 1001.82 2218.46 996.819 2221.96 993.483C2224.66 993.476 2227.68 993.505 2230.72 993.454C2238.93 993.281 2243.16 989.151 2243.77 980.984C2244.12 976.335 2244.37 971.88 2241.09 967.865C2239.96 966.464 2239.97 964.139 2239.4 962.031Z" fill="#4DDEFF"/>
<path fill-rule="evenodd" clip-rule="evenodd" d="M1340.47 959.205C1348.56 950.403 1344.09 942.165 1335.3 937.825C1333.92 938.1 1332.29 938.417 1330.73 938.728C1329.19 937.97 1327.72 937.241 1326.31 936.54C1320.04 922.951 1306.9 926.562 1301.84 937.168C1297.32 939.363 1291.11 937.06 1287.22 941.818C1284.92 944.605 1284.03 947.79 1284.48 951.494C1284.9 954.923 1287.68 957.357 1288.01 960.858C1287.71 962.649 1286.48 964.093 1285.62 965.703C1281.05 974.223 1287.68 984.332 1296.77 982.967C1297.43 982.873 1298.09 982.794 1298.28 982.765C1303.24 984.13 1304.92 988.173 1307.35 991.668C1309.3 992.325 1311.41 992.859 1313.02 994.195C1316.34 993.3 1319.4 992.462 1322.26 991.689C1324.97 989.372 1324.6 985.581 1327.25 983.061C1329.29 983.054 1331.59 983.076 1333.88 983.032C1340.11 982.902 1343.33 979.776 1343.79 973.574C1344.05 970.057 1344.24 966.671 1341.76 963.624C1340.89 962.57 1340.9 960.808 1340.47 959.205Z" fill="#FED21C"/>
<path fill-rule="evenodd" clip-rule="evenodd" d="M1901.33 1492.19C1909.08 1483.76 1904.8 1475.86 1896.38 1471.71C1895.05 1471.97 1893.49 1472.28 1892.01 1472.58C1890.53 1471.85 1889.13 1471.15 1887.77 1470.48C1881.77 1457.46 1869.17 1460.92 1864.34 1471.08C1860 1473.18 1854.05 1470.98 1850.33 1475.54C1848.12 1478.21 1847.27 1481.25 1847.7 1484.81C1848.1 1488.09 1850.77 1490.42 1851.09 1493.77C1850.8 1495.49 1849.63 1496.86 1848.8 1498.41C1844.43 1506.58 1850.77 1516.26 1859.48 1514.95C1860.1 1514.86 1860.73 1514.78 1860.92 1514.76C1865.68 1516.06 1867.28 1519.93 1869.6 1523.28C1871.47 1523.91 1873.5 1524.42 1875.04 1525.7C1878.23 1524.84 1881.15 1524.04 1883.89 1523.31C1886.48 1521.08 1886.13 1517.45 1888.67 1515.04C1890.63 1515.03 1892.82 1515.05 1895.03 1515C1900.98 1514.89 1904.07 1511.89 1904.51 1505.96C1904.77 1502.58 1904.95 1499.34 1902.56 1496.42C1901.74 1495.41 1901.75 1493.72 1901.33 1492.19Z" fill="#F28DFD"/>
<path fill-rule="evenodd" clip-rule="evenodd" d="M1702.95 1530.37C1703.03 1531.77 1702.49 1532.46 1701.7 1533C1700.57 1533.77 1699.53 1534.94 1698.28 1535.21C1692.58 1536.42 1690.8 1541.07 1688.54 1545.38C1686.39 1549.5 1683.42 1549.88 1681.38 1545.74C1678.66 1540.24 1675.22 1536.17 1669.27 1533.83C1666.02 1532.56 1666.05 1528.57 1669.36 1527.29C1675.35 1524.97 1678.85 1521 1681.45 1515.37C1683.27 1511.41 1686.61 1511.75 1688.45 1515.71C1690.6 1520.34 1692.77 1524.62 1698.42 1526.14C1700.48 1526.69 1702.48 1528.25 1702.95 1530.37Z" fill="#FED21C"/>
<path d="M1701.61 1767.2C1704.24 1764.77 1708.2 1764.65 1710.96 1766.8L1711.62 1767.38L1744.16 1799.83C1746.99 1802.64 1747 1807.22 1744.18 1810.04C1741.58 1812.65 1737.48 1812.85 1734.65 1810.65L1733.97 1810.05L1706.34 1782.51L1674.55 1812.01C1672.01 1814.36 1668.2 1814.56 1665.45 1812.59L1664.72 1812L1634.69 1784.09L1601.15 1813.99C1598.46 1816.39 1594.45 1816.41 1591.74 1814.16L1591.09 1813.55L1560.5 1781.05C1557.77 1778.15 1557.91 1773.58 1560.81 1770.84C1563.49 1768.32 1567.59 1768.25 1570.36 1770.53L1571.02 1771.15L1596.78 1798.53L1629.99 1768.95C1632.54 1766.68 1636.29 1766.52 1638.99 1768.47L1639.71 1769.05L1669.64 1796.86L1701.61 1767.2Z" fill="#FF67FF"/>
<path fill-rule="evenodd" clip-rule="evenodd" d="M1681.29 1053.82C1681.37 1055.23 1680.83 1055.92 1680.04 1056.45C1678.91 1057.23 1677.86 1058.4 1676.62 1058.66C1670.92 1059.88 1669.13 1064.52 1666.88 1068.84C1664.72 1072.96 1661.76 1073.33 1659.71 1069.2C1657 1063.7 1653.56 1059.63 1647.6 1057.28C1644.36 1056.01 1644.39 1052.02 1647.69 1050.75C1653.69 1048.43 1657.18 1044.45 1659.78 1038.82C1661.61 1034.86 1664.95 1035.2 1666.79 1039.16C1668.94 1043.79 1671.11 1048.08 1676.75 1049.59C1678.82 1050.15 1680.82 1051.71 1681.29 1053.82Z" fill="#FED21C"/>
<path fill-rule="evenodd" clip-rule="evenodd" d="M1977.35 1118.61C1977.48 1121.14 1976.51 1122.38 1975.09 1123.34C1973.06 1124.74 1971.18 1126.84 1968.94 1127.32C1958.67 1129.5 1955.47 1137.87 1951.4 1145.64C1947.53 1153.05 1942.19 1153.73 1938.51 1146.28C1933.62 1136.38 1927.44 1129.06 1916.71 1124.84C1910.87 1122.55 1910.92 1115.37 1916.88 1113.07C1927.66 1108.9 1933.95 1101.75 1938.64 1091.61C1941.93 1084.48 1947.93 1085.09 1951.24 1092.22C1955.11 1100.56 1959.02 1108.27 1969.18 1110.99C1972.9 1111.99 1976.5 1114.8 1977.35 1118.61Z" fill="#FED21C"/>
</g>
<path fill-rule="evenodd" clip-rule="evenodd" d="M2545.95 1040.68H2196.97C2187.35 1040.68 2179.55 1032.88 2179.55 1023.27V764.618C2179.55 755.001 2187.35 747.203 2196.97 747.203H2545.95C2555.56 747.203 2563.36 755.001 2563.36 764.618V1023.27C2563.36 1032.88 2555.56 1040.68 2545.95 1040.68Z" fill="#FED21C"/>
<path fill-rule="evenodd" clip-rule="evenodd" d="M2555.62 819.29H2187.21V773.007C2187.21 763.678 2194.78 756.118 2204.11 756.118H2538.73C2548.06 756.118 2555.62 763.678 2555.62 773.007V819.29Z" fill="#FFF1CE"/>
<path fill-rule="evenodd" clip-rule="evenodd" d="M2216.3 1018.77C2216.3 1021.93 2213.73 1024.5 2210.57 1024.5C2207.41 1024.5 2204.84 1021.93 2204.84 1018.77C2204.84 1015.61 2207.41 1013.04 2210.57 1013.04C2213.73 1013.04 2216.3 1015.61 2216.3 1018.77Z" fill="#FFF1CE"/>
<path fill-rule="evenodd" clip-rule="evenodd" d="M2235.54 1018.77C2235.54 1021.93 2232.98 1024.5 2229.81 1024.5C2226.65 1024.5 2224.08 1021.93 2224.08 1018.77C2224.08 1015.61 2226.65 1013.04 2229.81 1013.04C2232.98 1013.04 2235.54 1015.61 2235.54 1018.77Z" fill="#FFF1CE"/>
<path fill-rule="evenodd" clip-rule="evenodd" d="M2254.78 1018.77C2254.78 1021.93 2252.22 1024.5 2249.06 1024.5C2245.9 1024.5 2243.32 1021.93 2243.32 1018.77C2243.32 1015.61 2245.9 1013.04 2249.06 1013.04C2252.22 1013.04 2254.78 1015.61 2254.78 1018.77Z" fill="#FFF1CE"/>
<path fill-rule="evenodd" clip-rule="evenodd" d="M2246.38 789.449C2246.38 800.922 2237.08 810.215 2225.61 810.215C2214.14 810.215 2204.84 800.922 2204.84 789.449C2204.84 777.976 2214.14 768.683 2225.61 768.683C2237.08 768.683 2246.38 777.976 2246.38 789.449Z" fill="#FED21C"/>
<path fill-rule="evenodd" clip-rule="evenodd" d="M2256.31 776.694H2439.86V768.687H2256.31V776.694Z" fill="#FED21C"/>
<path fill-rule="evenodd" clip-rule="evenodd" d="M2256.31 791.59H2363.67V782.788H2256.31V791.59Z" fill="#FED21C"/>
<path fill-rule="evenodd" clip-rule="evenodd" d="M2381.98 846.218L2397.34 877.345C2399.05 880.804 2402.35 883.201 2406.18 883.757L2440.53 888.753C2450.15 890.147 2453.99 901.974 2447.03 908.761L2422.17 932.993C2419.4 935.686 2418.14 939.57 2418.8 943.368L2424.67 977.578C2426.31 987.167 2416.25 994.474 2407.64 989.947L2376.92 973.795C2373.5 971.997 2369.41 971.997 2366 973.795L2335.27 989.947C2326.66 994.474 2316.61 987.167 2318.25 977.578L2324.12 943.368C2324.77 939.57 2323.51 935.686 2320.74 932.993L2295.88 908.761C2288.92 901.974 2292.76 890.147 2302.39 888.753L2336.74 883.757C2340.56 883.201 2343.87 880.804 2345.57 877.345L2360.94 846.218C2365.24 837.496 2377.67 837.496 2381.98 846.218Z" fill="#FFF1CE"/>
<path fill-rule="evenodd" clip-rule="evenodd" d="M2507.71 2070.33C2508.1 2072.97 2508.47 2075.61 2508.83 2078.27C2509.29 2081.61 2509.71 2085.16 2508.33 2088.23C2506.05 2093.35 2499.91 2095.17 2495.17 2098.15C2494.37 2098.66 2493.57 2099.24 2493.1 2100.05C2492.06 2101.89 2493.07 2104.34 2494.77 2105.59C2496.46 2106.85 2498.64 2107.19 2500.72 2107.51C2509.69 2108.87 2517.35 2111.07 2526.52 2110.93C2536.49 2110.78 2547.44 2110.36 2557.03 2107.35C2563.32 2105.8 2569.6 2103.64 2576.07 2103.89C2578.97 2104.01 2581.84 2104.62 2584.75 2104.65C2590.77 2104.74 2596.78 2102.25 2600.99 2097.94C2605.2 2093.64 2607.54 2087.57 2607.31 2081.56C2606.93 2071.22 2599.6 2062.54 2596.71 2052.62C2593.98 2043.24 2595.34 2033.23 2596.11 2023.49C2596.86 2013.74 2596.84 2003.35 2591.8 1994.97C2588.7 1989.82 2583.79 1985.78 2578.13 1983.73C2572.45 1981.69 2566.28 1981.64 2560.25 1981.55C2540.29 1981.27 2519.51 1980.51 2501.32 1988.75C2499.07 1989.77 2496.72 1991.08 2495.76 1993.37C2493.47 1998.74 2496.89 2006.97 2497.94 2012.34C2499.36 2019.72 2500.72 2027.12 2502.01 2034.52C2504.09 2046.43 2505.99 2058.36 2507.71 2070.33Z" fill="#CDD6F2"/>
<path fill-rule="evenodd" clip-rule="evenodd" d="M2498.4 1864.19C2504.46 1865.72 2511.19 1865.09 2516.28 1862.26C2517.62 1861.52 2518.42 1860.3 2518.47 1858.64C2518.54 1856.51 2517.5 1855.62 2515.61 1856.71C2510.5 1859.63 2505.23 1859.45 2499.73 1858.27C2496.96 1857.68 2494.78 1856.34 2492.93 1854.34C2491.53 1852.81 2490.28 1851.13 2488.89 1849.59C2487.91 1848.5 2486.6 1847.76 2485.19 1848.55C2483.66 1849.42 2483.67 1850.9 2484.24 1852.45C2486.51 1858.68 2492.09 1862.61 2498.4 1864.19Z" fill="#FAA6DC"/>
<path fill-rule="evenodd" clip-rule="evenodd" d="M2496.67 1822.79C2492.89 1821.74 2491.81 1820.07 2493.65 1816.62C2496.08 1812.02 2498.75 1807.55 2501.33 1803.04C2502.07 1801.74 2502.79 1800.41 2504.69 1800.79C2506.57 1801.16 2506.7 1802.65 2507.01 1804.12C2508.17 1809.65 2508.39 1815.27 2509.01 1820.86C2509.4 1824.5 2509.65 1824.47 2507.27 1824.57C2502.72 1824.83 2499.75 1823.65 2496.67 1822.79Z" fill="#F376DA"/>
<path fill-rule="evenodd" clip-rule="evenodd" d="M2522.63 1890.92C2525.99 1890.46 2528.27 1888.29 2530.66 1886.3C2531.14 1885.9 2530.89 1885.33 2530.54 1884.91C2530.09 1884.37 2529.49 1884.31 2528.89 1884.59C2528.03 1884.98 2527.16 1885.37 2526.35 1885.88C2523.26 1887.81 2520.65 1886.83 2518.21 1884.61C2516.99 1883.52 2515.75 1882.44 2514.55 1881.32C2513.64 1880.47 2512.38 1880.05 2511.51 1880.63C2510.5 1881.32 2511.23 1882.56 2511.75 1883.44C2514.2 1887.65 2517.85 1890.13 2522.63 1890.92Z" fill="#F376DA"/>
<path fill-rule="evenodd" clip-rule="evenodd" d="M2518.81 1871.61C2518.9 1872.14 2518.98 1872.92 2519.18 1873.66C2519.65 1875.35 2520.85 1876.44 2522.53 1876.35C2524.38 1876.26 2525.16 1874.68 2525.15 1873.03C2525.14 1871.32 2525.11 1869.61 2525.03 1867.89C2524.97 1866.55 2524.38 1865.19 2522.64 1864.95C2520.95 1864.72 2520.38 1865.88 2519.85 1867.11C2519.26 1868.46 2518.9 1869.88 2518.81 1871.61Z" fill="#F376DA"/>
<path fill-rule="evenodd" clip-rule="evenodd" d="M2479.63 1894.49C2479.63 1894.51 2479.65 1894.52 2479.65 1894.53L2479.63 1894.49Z" fill="#FCB332"/>
<path fill-rule="evenodd" clip-rule="evenodd" d="M2647.61 2009.05C2645.91 2005.05 2631.39 1968.86 2597.34 1944.89C2589.9 1939.67 2582.8 1933.96 2575.15 1929.04C2569.16 1925.19 2561.54 1922.18 2558.55 1915.25C2556.91 1911.47 2556.26 1907.35 2555.62 1903.28C2537.07 1908.18 2517.52 1906.7 2498.39 1905.19C2497.3 1912.37 2484.37 1981.53 2491.18 1997.84C2492.49 2000.97 2494.95 2003.42 2496.03 2006.63C2496.17 2006.82 2496.31 2007.01 2496.46 2007.19C2497.2 2008 2497.95 2008.81 2498.68 2009.62C2502.13 2013.46 2510.82 2015.71 2515.16 2018.32C2515.16 2018.32 2523.06 2095.86 2521.53 2096.72C2517 2099.24 2510.33 2100.87 2506.48 2104.12C2505.41 2105.02 2504.61 2106.35 2504.69 2107.75C2504.84 2110.07 2507.25 2110.76 2509.18 2110.89C2528.61 2112.18 2548.11 2111.6 2567.57 2111.19C2584.92 2110.82 2603.11 2111.47 2620.14 2107.73C2623.12 2107.07 2626.18 2106.21 2628.51 2104.25C2630.26 2102.77 2677.82 2050.93 2681.94 1966.37C2682.86 1947.52 2682.53 1928.57 2679.84 1909.88C2676.57 1887.02 2669.49 1864.46 2652.22 1848.33C2649.62 1845.9 2646.83 1843.66 2643.75 1841.95C2638.95 1839.28 2633.86 1838.75 2629.33 1842.02C2625.25 1844.96 2622.08 1852.65 2623.14 1857.4C2623.06 1858 2622.94 1858.59 2622.9 1859.19C2622.3 1869.01 2639.15 1904.76 2642.14 1915.82C2648.23 1938.39 2652.41 1961.47 2654.6 1984.75C2654.98 1988.77 2656.29 2010.94 2648.09 2009.91C2648.01 2009.9 2647.84 2009.59 2647.61 2009.05Z" fill="#2C2571"/>
<path fill-rule="evenodd" clip-rule="evenodd" d="M2485.19 1848.55C2486.6 1847.76 2487.91 1848.5 2488.89 1849.59C2490.29 1851.13 2491.53 1852.81 2492.93 1854.34C2494.77 1856.34 2496.96 1857.68 2499.73 1858.27C2505.23 1859.45 2510.5 1859.63 2515.6 1856.71C2517.5 1855.62 2518.54 1856.51 2518.47 1858.64C2518.42 1860.3 2517.62 1861.52 2516.28 1862.26C2505.85 1868.06 2488.71 1864.69 2484.24 1852.45C2483.68 1850.9 2483.66 1849.42 2485.19 1848.55ZM2511.52 1880.63C2512.38 1880.05 2513.65 1880.46 2514.55 1881.31C2515.74 1882.44 2516.99 1883.52 2518.2 1884.61C2520.65 1886.83 2523.26 1887.81 2526.36 1885.87C2527.16 1885.37 2528.03 1884.98 2528.89 1884.58C2529.49 1884.31 2530.09 1884.37 2530.54 1884.91C2530.89 1885.33 2531.14 1885.9 2530.65 1886.3C2528.28 1888.29 2525.99 1890.45 2522.63 1890.92C2517.85 1890.13 2514.2 1887.65 2511.74 1883.44C2511.23 1882.56 2510.51 1881.31 2511.52 1880.63ZM2561.6 1829.43C2558.67 1828.94 2554.75 1828.33 2550.93 1827.2C2548.7 1826.54 2548.35 1825.3 2548.98 1823.04C2550.63 1817.13 2554.53 1812.3 2556.53 1806.58C2556.87 1805.6 2557.47 1804.38 2558.83 1804.43C2560.08 1804.48 2560.82 1805.36 2561.29 1806.47C2563.63 1812.02 2566.31 1817.47 2567.65 1823.4C2568.91 1828.94 2568.54 1829.33 2561.6 1829.43ZM2525.15 1873.03C2525.16 1874.68 2524.39 1876.26 2522.52 1876.35C2520.85 1876.43 2519.64 1875.35 2519.19 1873.66C2518.98 1872.92 2518.9 1872.14 2518.81 1871.61C2518.9 1869.88 2519.26 1868.46 2519.85 1867.1C2520.38 1865.88 2520.95 1864.71 2522.65 1864.95C2524.39 1865.19 2524.97 1866.55 2525.04 1867.9C2525.11 1869.6 2525.14 1871.32 2525.15 1873.03ZM2507.27 1824.57C2502.73 1824.84 2499.75 1823.65 2496.67 1822.79C2492.89 1821.74 2491.81 1820.07 2493.65 1816.61C2496.09 1812.02 2498.74 1807.55 2501.33 1803.04C2502.07 1801.74 2502.79 1800.42 2504.69 1800.79C2506.57 1801.17 2506.7 1802.65 2507.01 1804.12C2508.17 1809.64 2508.39 1815.28 2509 1820.86C2509.4 1824.5 2509.65 1824.47 2507.27 1824.57ZM2473.82 1883.8C2476.3 1890.22 2480.4 1895.96 2485.16 1900.9C2493.11 1909.18 2507.99 1909.33 2518.51 1911.06C2530.82 1913.09 2543.78 1912.61 2555.89 1909.14C2561.65 1907.49 2566.55 1905.82 2570.52 1901.22C2573.72 1897.52 2576.16 1893.21 2577.87 1888.63C2582.7 1875.73 2582.18 1861.06 2578.93 1847.86C2577.71 1842.92 2573.67 1820.96 2571.86 1815.15C2568.88 1805.62 2565.88 1796.1 2562.25 1786.79C2561.8 1785.64 2561.44 1784.25 2560.04 1784.24C2558.77 1784.23 2558.38 1785.62 2557.92 1786.63C2552.17 1799.07 2546.44 1811.52 2540.69 1823.97C2538.81 1828.03 2538.29 1831.12 2533.4 1831.12C2528.97 1831.13 2523.87 1829.83 2519.93 1827.85C2516.73 1826.23 2516.67 1824.75 2516.29 1821.06C2516.28 1820.98 2516.26 1820.89 2516.25 1820.8C2514.85 1808.06 2513.45 1795.3 2512.02 1782.55C2511.91 1781.57 2512.29 1780.18 2511.08 1779.8C2509.9 1779.43 2508.9 1780.37 2508.21 1781.24C2504.61 1785.73 2479.64 1816.93 2471.7 1849.61C2469.39 1859.1 2470.03 1869.15 2472.24 1878.69C2472.65 1880.45 2473.17 1882.14 2473.82 1883.8Z" fill="#2C2571"/>
<path fill-rule="evenodd" clip-rule="evenodd" d="M2567.66 1823.4C2566.31 1817.48 2563.64 1812.02 2561.29 1806.46C2560.82 1805.35 2560.08 1804.48 2558.83 1804.43C2557.46 1804.38 2556.87 1805.6 2556.52 1806.57C2554.54 1812.31 2550.64 1817.14 2548.98 1823.03C2548.35 1825.3 2548.7 1826.54 2550.93 1827.19C2554.75 1828.33 2558.67 1828.94 2561.59 1829.43C2568.54 1829.32 2568.91 1828.94 2567.66 1823.4Z" fill="#F376DA"/>
<path fill-rule="evenodd" clip-rule="evenodd" d="M2493.74 1916.13C2500.99 1919.42 2508.78 1920.03 2516.57 1920.66C2520.36 1920.97 2524.17 1921.19 2527.97 1921.43C2531.35 1921.66 2532.29 1920.59 2531.85 1917.45C2531.59 1915.65 2530.37 1915.52 2529.05 1915.38C2523.96 1914.87 2518.85 1914.49 2513.78 1913.84C2507.26 1912.99 2500.88 1911.31 2494.48 1909.82L2493.73 1909.87C2493.39 1911.87 2492.24 1913.85 2493.52 1915.91C2493.62 1915.95 2493.7 1916.02 2493.74 1916.13Z" fill="#F376DA"/>
<path fill-rule="evenodd" clip-rule="evenodd" d="M2559.4 1917.85C2559.73 1917.15 2560.1 1916.46 2560.38 1915.75C2561.14 1913.85 2560.18 1912.4 2558.15 1912.52C2554.96 1912.7 2551.81 1913.23 2548.69 1913.94C2545.99 1914.55 2546.77 1916.74 2546.91 1918.37C2547.05 1920.28 2548.72 1919.55 2549.78 1919.42C2552.82 1919.04 2555.85 1918.51 2558.89 1918.03C2559.06 1917.98 2559.23 1917.91 2559.4 1917.85Z" fill="#F376DA"/>
<path fill-rule="evenodd" clip-rule="evenodd" d="M2538.73 1919.33C2540.06 1919.25 2541.75 1919.48 2541.77 1917.44C2541.8 1915.38 2540.13 1915.47 2538.76 1915.51C2537.48 1915.56 2535.98 1915.57 2536 1917.49C2536.03 1919.31 2537.22 1919.58 2538.73 1919.33Z" fill="#F376DA"/>
<path fill-rule="evenodd" clip-rule="evenodd" d="M2552.58 1871.87C2546.34 1871.87 2539.96 1869.63 2535.72 1865.65C2534.6 1864.59 2534.11 1863.22 2534.47 1861.61C2534.92 1859.51 2536.14 1858.91 2537.72 1860.42C2541.95 1864.49 2547.12 1865.61 2552.74 1865.79C2555.57 1865.89 2558.01 1865.12 2560.28 1863.63C2562.02 1862.49 2563.63 1861.17 2565.36 1860C2566.58 1859.19 2568.03 1858.78 2569.2 1859.91C2570.48 1861.12 2570.1 1862.55 2569.18 1863.91C2565.46 1869.4 2559.08 1871.86 2552.58 1871.87Z" fill="#FAA6DC"/>
<path d="M2572.89 2004.19C2530.98 2049.58 2580.28 2087.18 2586.97 2090.71C2574.3 2086.54 2531.26 2088.93 2519.8 2095.77" stroke="#CDD6F2" stroke-width="0.5" stroke-linecap="round" stroke-linejoin="round"/>
<path d="M2461.17 1855.67L2476 1865.13" stroke="#2C2571" stroke-linecap="round"/>
<path d="M2462.53 1879.41L2474.84 1877.74" stroke="#2C2571" stroke-linecap="round"/>
<path d="M2597.78 1867.25L2581.06 1872.72" stroke="#2C2571" stroke-linecap="round"/>
<path d="M2590.54 1889.9L2579.04 1885.22" stroke="#2C2571" stroke-linecap="round"/>
<path fill-rule="evenodd" clip-rule="evenodd" d="M2487.1 1887.88C2494.56 1888.94 2498.97 1886.81 2500.46 1881.42C2502.2 1875.17 2498.2 1868.49 2491.15 1865.87C2485.63 1863.83 2480.14 1866.07 2477.29 1871.55C2473.56 1878.73 2478.29 1886.62 2487.1 1887.88Z" fill="#F376DA"/>
<path fill-rule="evenodd" clip-rule="evenodd" d="M2558.2 1898.1C2565.65 1899.15 2570.07 1897.03 2571.56 1891.63C2573.3 1885.38 2569.3 1878.71 2562.25 1876.09C2556.73 1874.04 2551.24 1876.29 2548.39 1881.77C2544.66 1888.95 2549.39 1896.83 2558.2 1898.1Z" fill="#F376DA"/>
<path fill-rule="evenodd" clip-rule="evenodd" d="M1958.37 2108.03C1952.15 2108.03 1946.74 2103.23 1945.89 2096.65L1893.16 1686.61H1672.51L1620.59 2096.61C1619.69 2103.81 1613.35 2108.86 1606.45 2107.91C1599.55 2106.96 1594.7 2100.38 1595.61 2093.18L1648.96 1671.77C1649.78 1665.25 1655.13 1660.36 1661.45 1660.36H1904.19C1910.5 1660.36 1915.84 1665.23 1916.68 1671.75L1970.88 2093.16C1971.8 2100.34 1966.96 2106.95 1960.06 2107.91C1959.49 2107.99 1958.92 2108.03 1958.37 2108.03Z" fill="#A12BB6"/>
<path fill-rule="evenodd" clip-rule="evenodd" d="M2117.23 2108.03C2111.02 2108.03 2105.6 2103.23 2104.75 2096.65L2052.03 1686.61H1831.37L1779.46 2096.61C1778.55 2103.81 1772.22 2108.86 1765.31 2107.91C1758.41 2106.96 1753.56 2100.38 1754.47 2093.18L1807.82 1671.77C1808.64 1665.25 1813.99 1660.36 1820.32 1660.36H2063.05C2069.37 1660.36 2074.7 1665.23 2075.54 1671.75L2129.74 2093.16C2130.66 2100.34 2125.82 2106.95 2118.92 2107.91C2118.36 2107.99 2117.79 2108.03 2117.23 2108.03Z" fill="#974CCD"/>
<path fill-rule="evenodd" clip-rule="evenodd" d="M1681.3 1642.53H2042.35C2062.29 1642.53 2078.46 1658.69 2078.46 1678.63H1645.19C1645.19 1658.69 1661.36 1642.53 1681.3 1642.53Z" fill="#A12BB6"/>
<path fill-rule="evenodd" clip-rule="evenodd" d="M2162.82 1972.51L2165.92 1958.72L2172.33 1930.23L2114.11 1916.9L2111.71 1946.31L2110.59 1960.03L2107.34 2000.04L2154.2 2010.77L2162.82 1972.51Z" fill="#CDD6F2"/>
<path fill-rule="evenodd" clip-rule="evenodd" d="M2272.07 1866.3L2263.44 1837.48L2208.43 1852.86L2220.87 1880.62L2226.67 1893.58L2243.59 1931.35L2287.87 1918.97L2276.26 1880.25L2272.07 1866.3Z" fill="#CDD6F2"/>
<path fill-rule="evenodd" clip-rule="evenodd" d="M2101.2 1966.33C2101.2 1966.33 2100.7 1842.32 2103.61 1801.49C2105.37 1776.65 2109.08 1751.91 2112.67 1727.3C2114.2 1716.72 2126.93 1672.51 2118.41 1665.38C2111.82 1659.86 1904.73 1670.18 1872.67 1664.19C1871.45 1663.96 1832.09 1594.17 1754.58 1454.8C1840.78 1454.8 1883.88 1454.8 1883.88 1454.8C1883.88 1454.8 1983.46 1511.17 1999.61 1514.76C2149.53 1548.11 2191.23 1592.83 2199.62 1601.04C2210.41 1611.57 2213.48 1637.3 2212.03 1669.97C2207.68 1768.2 2162.36 1979.21 2162.36 1979.21L2101.2 1966.33Z" fill="#5736AE"/>
<path fill-rule="evenodd" clip-rule="evenodd" d="M2237.74 2104.63L2074.44 2070.27C2073.68 2067.7 2073.64 2064.29 2074.12 2060.33C2075.88 2045.66 2084.71 2023.52 2089.67 2009.43C2090.26 2007.78 2090.79 2006.25 2091.24 2004.85C2092 2002.48 2092.58 2000.5 2092.87 1999.01C2095.15 1987.14 2104.8 1991.29 2104.8 1991.29C2118.06 2011.73 2141.66 1990.24 2150.98 2000.88C2150.98 2000.88 2151.36 2001.31 2152.2 2002.34C2152.98 2003.29 2154.14 2004.75 2155.75 2006.86C2158.07 2009.88 2161.29 2014.24 2165.63 2020.32C2176.24 2035.26 2196.74 2047.96 2213.94 2060.13C2216.13 2061.67 2218.14 2063.18 2220.01 2064.65C2221.42 2065.78 2222.74 2066.88 2223.99 2067.96C2237.66 2079.86 2240.95 2089.17 2240.9 2095.43C2240.86 2101.43 2237.74 2104.63 2237.74 2104.63Z" fill="#FF67FF"/>
<path fill-rule="evenodd" clip-rule="evenodd" d="M2223.98 2067.96C2219.1 2070.58 2208.4 2075.62 2200.9 2074.05C2200.57 2073.98 2200.24 2073.89 2199.92 2073.79C2194.72 2072.22 2177.18 2058.11 2163.1 2045.68C2155.02 2038.54 2147.72 2031.67 2142.56 2026.3C2134.08 2017.5 2132.88 2014.56 2132.84 2012.7C2132.7 2005.66 2144.26 2003.2 2152.2 2002.34C2152.98 2003.28 2154.15 2004.75 2155.75 2006.86C2145.96 2007.56 2137.54 2010.1 2137.45 2012.53C2137.97 2014.73 2146.15 2024.47 2166.71 2042.57C2182.4 2056.38 2197.56 2068.06 2201.21 2069.16C2206.15 2070.65 2214.46 2067.42 2220.01 2064.66C2221.42 2065.78 2222.74 2066.88 2223.98 2067.96Z" fill="#432C82"/>
<path fill-rule="evenodd" clip-rule="evenodd" d="M2237.74 2104.63L2074.45 2070.27C2073.68 2067.7 2073.64 2064.29 2074.12 2060.33L2240.91 2095.43C2240.85 2101.43 2237.74 2104.63 2237.74 2104.63Z" fill="#7E4DCD"/>
<path fill-rule="evenodd" clip-rule="evenodd" d="M2091.11 2073.77L2086.26 2072.75C2092.21 2067.98 2098.44 2060.06 2100.29 2047.24C2102.75 2030.19 2095.26 2016.78 2089.67 2009.43C2090.26 2007.79 2090.79 2006.25 2091.24 2004.85C2097.37 2012.17 2107.15 2027.44 2104.22 2047.85C2102.46 2060.1 2096.91 2068.34 2091.11 2073.77Z" fill="#432C82"/>
<mask id="mask0_0_1" style="mask-type:luminance" maskUnits="userSpaceOnUse" x="1747" y="1458" width="464" height="528">
<path fill-rule="evenodd" clip-rule="evenodd" d="M1837.59 1458.56C1794.71 1458.63 1754.26 1460.37 1752.87 1466.6C1741.95 1515.63 1738.99 1582.95 1843.98 1635.61C1864.15 1645.72 1885.72 1652.2 1907.7 1656.58C1941.4 1663.3 1975.69 1666.07 2009.62 1671.5C2032.08 1675.11 2058.46 1673.62 2079.55 1672.14C2099.04 1670.78 2114.01 1669.41 2117.16 1672.06C2125.65 1679.17 2112.97 1723.27 2111.44 1733.82C2107.86 1758.38 2104.16 1783.05 2102.41 1807.82C2099.51 1848.56 2100 1972.27 2100 1972.27L2160.96 1985.11C2160.96 1985.11 2206.13 1774.62 2210.47 1676.64C2211.91 1644.05 2208.85 1618.38 2198.09 1607.88C2189.73 1599.69 2176.96 1555.07 2027.55 1521.8C2011.45 1518.23 1939.29 1460.58 1939.29 1460.58C1939.29 1460.58 1891.02 1458.64 1843.59 1458.56" fill="white"/>
</mask>
<g mask="url(#mask0_0_1)">
<path fill-rule="evenodd" clip-rule="evenodd" d="M2248.55 1964.55C2223.18 1963.32 2192.75 1939.74 2185.57 1916.6C2184 1911.55 2182.71 1906.1 2187.04 1902.08C2192.44 1897.05 2198.93 1898.52 2204.19 1902.05C2221.28 1913.52 2236.81 1927.44 2256.74 1934.24C2265.48 1937.22 2269.49 1946.33 2266.29 1955.75C2263.33 1964.47 2254.74 1964.13 2248.55 1964.55Z" fill="#FED21C"/>
</g>
<mask id="mask1_0_1" style="mask-type:luminance" maskUnits="userSpaceOnUse" x="1747" y="1458" width="464" height="528">
<path fill-rule="evenodd" clip-rule="evenodd" d="M1837.59 1458.56C1794.71 1458.63 1754.26 1460.37 1752.87 1466.6C1741.95 1515.63 1738.99 1582.95 1843.98 1635.61C1864.15 1645.72 1885.72 1652.2 1907.7 1656.58C1941.4 1663.3 1975.69 1666.07 2009.62 1671.5C2032.08 1675.11 2058.46 1673.62 2079.55 1672.14C2099.04 1670.78 2114.01 1669.41 2117.16 1672.06C2125.65 1679.17 2112.97 1723.27 2111.44 1733.82C2107.86 1758.38 2104.16 1783.05 2102.41 1807.82C2099.51 1848.56 2100 1972.27 2100 1972.27L2160.96 1985.11C2160.96 1985.11 2206.13 1774.62 2210.47 1676.64C2211.91 1644.05 2208.85 1618.38 2198.09 1607.88C2189.73 1599.69 2176.96 1555.07 2027.55 1521.8C2011.45 1518.23 1939.29 1460.58 1939.29 1460.58C1939.29 1460.58 1891.02 1458.64 1843.59 1458.56" fill="white"/>
</mask>
<g mask="url(#mask1_0_1)">
<path fill-rule="evenodd" clip-rule="evenodd" d="M2197.61 1734.05C2200.93 1718.09 2213.44 1710.99 2228.33 1709.83C2247.26 1708.36 2259.18 1718.88 2263.72 1738.51C2265.68 1746.99 2265.16 1755.24 2262.84 1763.31C2261.28 1768.72 2257.86 1773.45 2251.79 1773.11C2242.5 1772.59 2239.67 1764.96 2237.5 1757.08C2234.31 1745.48 2229 1740.06 2217.65 1748.49C2213.96 1751.24 2209.27 1751.24 2205.05 1748.65C2200.33 1745.76 2197.51 1741.66 2197.61 1734.05Z" fill="#C664E9"/>
</g>
<mask id="mask2_0_1" style="mask-type:luminance" maskUnits="userSpaceOnUse" x="1747" y="1458" width="464" height="528">
<path fill-rule="evenodd" clip-rule="evenodd" d="M1837.59 1458.56C1794.71 1458.63 1754.26 1460.37 1752.87 1466.6C1741.95 1515.63 1738.99 1582.95 1843.98 1635.61C1864.15 1645.72 1885.72 1652.2 1907.7 1656.58C1941.4 1663.3 1975.69 1666.07 2009.62 1671.5C2032.08 1675.11 2058.46 1673.62 2079.55 1672.14C2099.04 1670.78 2114.01 1669.41 2117.16 1672.06C2125.65 1679.17 2112.97 1723.27 2111.44 1733.82C2107.86 1758.38 2104.16 1783.05 2102.41 1807.82C2099.51 1848.56 2100 1972.27 2100 1972.27L2160.96 1985.11C2160.96 1985.11 2206.13 1774.62 2210.47 1676.64C2211.91 1644.05 2208.85 1618.38 2198.09 1607.88C2189.73 1599.69 2176.96 1555.07 2027.55 1521.8C2011.45 1518.23 1939.29 1460.58 1939.29 1460.58C1939.29 1460.58 1891.02 1458.64 1843.59 1458.56" fill="white"/>
</mask>
<g mask="url(#mask2_0_1)">
<path fill-rule="evenodd" clip-rule="evenodd" d="M2223.7 1813.71C2219.13 1812.42 2212.04 1810.76 2205.19 1808.35C2200.44 1806.69 2197.39 1802.56 2198.6 1797.25C2199.8 1791.95 2204.81 1790.96 2209.25 1790.61C2220.54 1789.72 2232 1791.05 2242.38 1783.98C2248.34 1779.94 2254.83 1781.72 2259.92 1786.83C2263.44 1790.34 2263.59 1795.22 2261.57 1799.39C2257.25 1808.28 2248.83 1810.93 2240.33 1812.66C2235.77 1813.57 2231 1813.3 2223.7 1813.71Z" fill="#FF67FF"/>
</g>
<mask id="mask3_0_1" style="mask-type:luminance" maskUnits="userSpaceOnUse" x="1747" y="1458" width="464" height="528">
<path fill-rule="evenodd" clip-rule="evenodd" d="M1837.59 1458.56C1794.71 1458.63 1754.26 1460.37 1752.87 1466.6C1741.95 1515.63 1738.99 1582.95 1843.98 1635.61C1864.15 1645.72 1885.72 1652.2 1907.7 1656.58C1941.4 1663.3 1975.69 1666.07 2009.62 1671.5C2032.08 1675.11 2058.46 1673.62 2079.55 1672.14C2099.04 1670.78 2114.01 1669.41 2117.16 1672.06C2125.65 1679.17 2112.97 1723.27 2111.44 1733.82C2107.86 1758.38 2104.16 1783.05 2102.41 1807.82C2099.51 1848.56 2100 1972.27 2100 1972.27L2160.96 1985.11C2160.96 1985.11 2206.13 1774.62 2210.47 1676.64C2211.91 1644.05 2208.85 1618.38 2198.09 1607.88C2189.73 1599.69 2176.96 1555.07 2027.55 1521.8C2011.45 1518.23 1939.29 1460.58 1939.29 1460.58C1939.29 1460.58 1891.02 1458.64 1843.59 1458.56" fill="white"/>
</mask>
<g mask="url(#mask3_0_1)">
<path fill-rule="evenodd" clip-rule="evenodd" d="M2199.65 1855.69C2201.6 1853.6 2203.47 1849.86 2206.11 1849.11C2213 1847.19 2216.76 1853.17 2219.47 1858.11C2226.62 1871.16 2232.99 1884.68 2239.53 1898.09C2241.42 1901.96 2243.55 1906.21 2239.48 1910.05C2234.69 1914.56 2230.41 1910.57 2226.69 1908.25C2208.21 1896.71 2204.02 1876.9 2199.65 1855.69Z" fill="#FF67FF"/>
</g>
<mask id="mask4_0_1" style="mask-type:luminance" maskUnits="userSpaceOnUse" x="1747" y="1458" width="464" height="528">
<path fill-rule="evenodd" clip-rule="evenodd" d="M1837.59 1458.56C1794.71 1458.63 1754.26 1460.37 1752.87 1466.6C1741.95 1515.63 1738.99 1582.95 1843.98 1635.61C1864.15 1645.72 1885.72 1652.2 1907.7 1656.58C1941.4 1663.3 1975.69 1666.07 2009.62 1671.5C2032.08 1675.11 2058.46 1673.62 2079.55 1672.14C2099.04 1670.78 2114.01 1669.41 2117.16 1672.06C2125.65 1679.17 2112.97 1723.27 2111.44 1733.82C2107.86 1758.38 2104.16 1783.05 2102.41 1807.82C2099.51 1848.56 2100 1972.27 2100 1972.27L2160.96 1985.11C2160.96 1985.11 2206.13 1774.62 2210.47 1676.64C2211.91 1644.05 2208.85 1618.38 2198.09 1607.88C2189.73 1599.69 2176.96 1555.07 2027.55 1521.8C2011.45 1518.23 1939.29 1460.58 1939.29 1460.58C1939.29 1460.58 1891.02 1458.64 1843.59 1458.56" fill="white"/>
</mask>
<g mask="url(#mask4_0_1)">
<path fill-rule="evenodd" clip-rule="evenodd" d="M2213.42 1818.44C2236.22 1819.45 2249.98 1834.3 2247.75 1853.82C2247.25 1858.25 2245.68 1861.73 2241.19 1862.86C2236.85 1863.96 2233.93 1861.79 2231.82 1858.04C2225.57 1846.87 2219.59 1836.1 2203.85 1840.22C2199.03 1841.47 2193.1 1838.08 2194.04 1830.67C2195.78 1817.18 2206.48 1819.77 2213.42 1818.44Z" fill="#C2F5FF"/>
</g>
<mask id="mask5_0_1" style="mask-type:luminance" maskUnits="userSpaceOnUse" x="1747" y="1458" width="464" height="528">
<path fill-rule="evenodd" clip-rule="evenodd" d="M1837.59 1458.56C1794.71 1458.63 1754.26 1460.37 1752.87 1466.6C1741.95 1515.63 1738.99 1582.95 1843.98 1635.61C1864.15 1645.72 1885.72 1652.2 1907.7 1656.58C1941.4 1663.3 1975.69 1666.07 2009.62 1671.5C2032.08 1675.11 2058.46 1673.62 2079.55 1672.14C2099.04 1670.78 2114.01 1669.41 2117.16 1672.06C2125.65 1679.17 2112.97 1723.27 2111.44 1733.82C2107.86 1758.38 2104.16 1783.05 2102.41 1807.82C2099.51 1848.56 2100 1972.27 2100 1972.27L2160.96 1985.11C2160.96 1985.11 2206.13 1774.62 2210.47 1676.64C2211.91 1644.05 2208.85 1618.38 2198.09 1607.88C2189.73 1599.69 2176.96 1555.07 2027.55 1521.8C2011.45 1518.23 1939.29 1460.58 1939.29 1460.58C1939.29 1460.58 1891.02 1458.64 1843.59 1458.56" fill="white"/>
</mask>
<g mask="url(#mask5_0_1)">
<path fill-rule="evenodd" clip-rule="evenodd" d="M2161.04 1863.71C2162.19 1859.41 2161.08 1854.64 2167.13 1853.85C2190.4 1850.85 2198.06 1864.1 2197.82 1885.73C2197.78 1888.71 2196.13 1889.91 2193.27 1891.25C2164 1904.98 2164.16 1882.32 2161.04 1863.71Z" fill="#26B6E3"/>
</g>
<mask id="mask6_0_1" style="mask-type:luminance" maskUnits="userSpaceOnUse" x="1747" y="1458" width="464" height="528">
<path fill-rule="evenodd" clip-rule="evenodd" d="M1837.59 1458.56C1794.71 1458.63 1754.26 1460.37 1752.87 1466.6C1741.95 1515.63 1738.99 1582.95 1843.98 1635.61C1864.15 1645.72 1885.72 1652.2 1907.7 1656.58C1941.4 1663.3 1975.69 1666.07 2009.62 1671.5C2032.08 1675.11 2058.46 1673.62 2079.55 1672.14C2099.04 1670.78 2114.01 1669.41 2117.16 1672.06C2125.65 1679.17 2112.97 1723.27 2111.44 1733.82C2107.86 1758.38 2104.16 1783.05 2102.41 1807.82C2099.51 1848.56 2100 1972.27 2100 1972.27L2160.96 1985.11C2160.96 1985.11 2206.13 1774.62 2210.47 1676.64C2211.91 1644.05 2208.85 1618.38 2198.09 1607.88C2189.73 1599.69 2176.96 1555.07 2027.55 1521.8C2011.45 1518.23 1939.29 1460.58 1939.29 1460.58C1939.29 1460.58 1891.02 1458.64 1843.59 1458.56" fill="white"/>
</mask>
<g mask="url(#mask6_0_1)">
<path fill-rule="evenodd" clip-rule="evenodd" d="M2232.43 1771.97C2232.19 1779.58 2228.19 1782.24 2222.43 1782.04C2213.94 1781.74 2208.82 1776.54 2209.04 1767.86C2209.22 1760.53 2213.91 1755.43 2221.37 1756.3C2230.36 1757.34 2232.09 1764.78 2232.43 1771.97Z" fill="#C2F5FF"/>
</g>
<mask id="mask7_0_1" style="mask-type:luminance" maskUnits="userSpaceOnUse" x="1747" y="1458" width="464" height="528">
<path fill-rule="evenodd" clip-rule="evenodd" d="M1837.59 1458.56C1794.71 1458.63 1754.26 1460.37 1752.87 1466.6C1741.95 1515.63 1738.99 1582.95 1843.98 1635.61C1864.15 1645.72 1885.72 1652.2 1907.7 1656.58C1941.4 1663.3 1975.69 1666.07 2009.62 1671.5C2032.08 1675.11 2058.46 1673.62 2079.55 1672.14C2099.04 1670.78 2114.01 1669.41 2117.16 1672.06C2125.65 1679.17 2112.97 1723.27 2111.44 1733.82C2107.86 1758.38 2104.16 1783.05 2102.41 1807.82C2099.51 1848.56 2100 1972.27 2100 1972.27L2160.96 1985.11C2160.96 1985.11 2206.13 1774.62 2210.47 1676.64C2211.91 1644.05 2208.85 1618.38 2198.09 1607.88C2189.73 1599.69 2176.96 1555.07 2027.55 1521.8C2011.45 1518.23 1939.29 1460.58 1939.29 1460.58C1939.29 1460.58 1891.02 1458.64 1843.59 1458.56" fill="white"/>
</mask>
<g mask="url(#mask7_0_1)">
<path fill-rule="evenodd" clip-rule="evenodd" d="M2180.23 1928.81C2173.48 1945.24 2182.55 1960.33 2187.89 1976.26C2190.12 1982.94 2186.37 1988.28 2181.51 1992.16C2177.55 1995.35 2172.66 1994.87 2168.55 1992.49C2163.69 1989.65 2164.36 1984.7 2164.57 1979.51C2164.75 1975.34 2163.53 1970.3 2161.21 1966.97C2154.58 1957.51 2154.7 1948.7 2160.59 1939.03C2162.06 1936.64 2161.94 1932.72 2161.56 1929.63C2160.7 1922.57 2153.32 1912.7 2164.06 1909.92C2174.7 1907.16 2176.73 1918.82 2180.23 1928.81Z" fill="#F28DFD"/>
</g>
<path fill-rule="evenodd" clip-rule="evenodd" d="M2153.53 1904.94C2145.98 1905.55 2143.82 1900.54 2142.91 1894.9C2141.89 1888.53 2146.14 1884.81 2151.06 1883.78C2155.99 1882.76 2160.07 1886.11 2160.64 1891.69C2161.26 1897.79 2159.38 1903 2153.53 1904.94Z" fill="#FF67FF"/>
<path fill-rule="evenodd" clip-rule="evenodd" d="M2138.29 1843.59C2140.42 1849.68 2142.27 1855.62 2148.93 1858.8C2142.53 1861.89 2140.07 1867.5 2137.74 1874.09C2135.25 1867.79 2132.15 1862.89 2126.38 1859.64C2133.26 1856.29 2135.74 1850 2138.29 1843.59Z" fill="#FF67FF"/>
<path fill-rule="evenodd" clip-rule="evenodd" d="M2132.36 1961.88C2128.24 1951.51 2122.79 1944.58 2115.14 1938.9C2124.64 1933.18 2129.22 1924.11 2133.05 1912.04C2136.69 1923.28 2139.53 1932.68 2149.99 1937.56C2140.26 1942.61 2136.28 1950.93 2132.36 1961.88Z" fill="#FED21C"/>
<path fill-rule="evenodd" clip-rule="evenodd" d="M2128.52 1889.8C2128.14 1889.8 2127.76 1889.79 2127.39 1889.8C2121.43 1889.88 2121.11 1890.4 2123.47 1895.98C2124.13 1897.54 2124.75 1899.13 2125.26 1900.74C2125.66 1901.99 2126.01 1903.54 2124.45 1904.11C2123.02 1904.63 2122.58 1903.14 2122.12 1902.1C2121.18 1899.95 2120.35 1897.75 2119.41 1895.61C2118.45 1893.46 2117.22 1893.29 2115.8 1895.22C2114.28 1897.3 2112.77 1899.4 2110.73 1900.99C2110.1 1901.51 2109.48 1901.96 2108.76 1901.29C2108.1 1900.69 2108.02 1899.84 2108.48 1899.15C2109.77 1897.2 2111.18 1895.36 2112.48 1893.44C2114.3 1890.75 2113.8 1889.55 2110.66 1889.02C2108.93 1888.73 2107.17 1888.57 2105.43 1888.31C2104.67 1888.2 2103.86 1887.94 2103.92 1886.94C2103.98 1885.98 2104.8 1885.64 2105.55 1885.61C2107.93 1885.5 2110.31 1885.51 2112.7 1885.48C2114.78 1885.45 2115.37 1884.31 2114.65 1882.39C2113.92 1880.44 2113.05 1878.55 2112.29 1876.6C2111.78 1875.28 2110.89 1873.57 2112.57 1872.8C2114.37 1871.96 2114.71 1874.15 2115.34 1875.25C2116.22 1876.82 2116.84 1878.57 2117.53 1880.26C2118.64 1882.98 2119.96 1883.92 2121.94 1880.99C2123.24 1879.06 2124.6 1877.18 2125.99 1875.33C2126.82 1874.21 2127.7 1872.6 2129.28 1873.84C2130.7 1874.95 2130.03 1876.39 2129.09 1877.63C2127.84 1879.27 2126.54 1880.89 2125.43 1882.62C2124.05 1884.77 2124.67 1886.06 2127.18 1886.2C2128.93 1886.31 2130.69 1886.26 2132.43 1886.47C2133.36 1886.59 2134.62 1886.76 2134.5 1888.23C2134.39 1889.53 2133.33 1889.84 2132.28 1889.89C2131.03 1889.95 2129.77 1889.91 2128.52 1889.91V1889.8Z" fill="#FED21C"/>
<mask id="mask8_0_1" style="mask-type:luminance" maskUnits="userSpaceOnUse" x="2231" y="1911" width="177" height="99">
<path fill-rule="evenodd" clip-rule="evenodd" d="M2231.03 1911.12H2407.42V2009.37H2231.03V1911.12Z" fill="white"/>
</mask>
<g mask="url(#mask8_0_1)">
<path fill-rule="evenodd" clip-rule="evenodd" d="M2407.03 1963.55L2245.73 2009.37C2243.94 2007.45 2242.44 2004.42 2241.17 2000.66C2236.43 1986.77 2234.82 1962.91 2233.21 1948.03C2233.03 1946.28 2232.84 1944.68 2232.64 1943.22C2232.31 1940.74 2231.97 1938.71 2231.59 1937.25C2228.53 1925.6 2238.97 1924.79 2238.97 1924.79C2259.67 1936.78 2271.58 1906.59 2284.53 1911.71C2284.53 1911.71 2285.05 1911.91 2286.26 1912.44C2287.36 1912.92 2289.03 1913.68 2291.38 1914.8C2294.76 1916.41 2299.53 1918.78 2306.04 1922.18C2321.99 1930.52 2345.85 1932.24 2366.51 1935.03C2369.15 1935.38 2371.61 1935.79 2373.92 1936.23C2375.66 1936.56 2377.33 1936.93 2378.9 1937.3C2396.3 1941.51 2403.26 1948.26 2405.9 1953.87C2408.44 1959.24 2407.03 1963.55 2407.03 1963.55Z" fill="#FF67FF"/>
</g>
<path fill-rule="evenodd" clip-rule="evenodd" d="M2378.9 1937.31C2375.65 1941.92 2368.22 1951.42 2360.81 1953.53C2360.49 1953.62 2360.16 1953.72 2359.83 1953.77C2354.48 1954.8 2332.67 1950.45 2314.68 1945.95C2304.38 1943.38 2294.87 1940.67 2287.91 1938.3C2276.52 1934.43 2274.18 1932.38 2273.34 1930.73C2270.19 1924.52 2279.5 1916.92 2286.26 1912.44C2287.36 1912.92 2289.04 1913.68 2291.39 1914.8C2282.9 1920 2276.44 1926.21 2277.41 1928.43C2278.82 1930.14 2290.35 1934.99 2316.59 1941.5C2336.61 1946.45 2355.24 1949.77 2358.99 1949.04C2364.06 1948.05 2370.12 1941.28 2373.91 1936.23C2375.66 1936.57 2377.33 1936.92 2378.9 1937.31Z" fill="#3B2D7E"/>
<mask id="mask9_0_1" style="mask-type:luminance" maskUnits="userSpaceOnUse" x="2241" y="1953" width="167" height="57">
<path fill-rule="evenodd" clip-rule="evenodd" d="M2241.16 1953.87H2407.42V2009.37H2241.16V1953.87Z" fill="white"/>
</mask>
<g mask="url(#mask9_0_1)">
<path fill-rule="evenodd" clip-rule="evenodd" d="M2407.03 1963.55L2245.73 2009.37C2243.94 2007.44 2242.44 2004.42 2241.16 2000.66L2405.9 1953.87C2408.45 1959.24 2407.03 1963.55 2407.03 1963.55Z" fill="#7E4DCD"/>
</g>
<path fill-rule="evenodd" clip-rule="evenodd" d="M2257.4 2006.06C2260.69 1999.02 2262.87 1989.04 2259.02 1976.75C2253.88 1960.41 2241.38 1951.96 2233.2 1948.03C2233.03 1946.29 2232.83 1944.67 2232.64 1943.21C2241.3 1946.87 2256.64 1955.89 2262.8 1975.46C2266.48 1987.2 2265.07 1997.13 2262.19 2004.7L2257.4 2006.06Z" fill="#3B2D7E"/>
<path fill-rule="evenodd" clip-rule="evenodd" d="M2224.03 1909.53C2224.03 1909.53 2171.16 1793.96 2156.19 1756.2C2141.22 1718.46 2114.42 1626.49 2114.42 1626.49C2114.42 1626.49 2025.46 1657.72 1927.72 1664.19C1761.62 1675.2 1747.54 1670.55 1738.9 1620.67C1731.84 1579.98 1747.46 1506.14 1747.46 1506.14L1878.11 1495.24C1878.11 1495.24 2062.66 1516.27 2119.08 1524.56C2132.66 1526.56 2144.98 1529.25 2156.03 1532.63C2170.25 1536.97 2184.09 1558.45 2196.85 1588.25C2235.22 1677.82 2284.45 1892.37 2284.45 1892.37L2224.03 1909.53Z" fill="#7E4DCD"/>
<mask id="mask10_0_1" style="mask-type:luminance" maskUnits="userSpaceOnUse" x="1746" y="1495" width="539" height="414">
<path fill-rule="evenodd" clip-rule="evenodd" d="M1747.45 1506.09C1747.45 1506.09 1746.35 1514.13 1746.29 1526.8V1528.99C1746.55 1584.39 1767.37 1718.27 1968.26 1678.31C2071.1 1657.85 2114.61 1626.04 2114.61 1626.04C2114.61 1626.04 2141.43 1717.71 2156.41 1755.32C2171.38 1792.96 2224.27 1908.15 2224.27 1908.15L2284.72 1891.05C2284.72 1891.05 2235.48 1677.2 2197.09 1587.93C2184.31 1558.23 2170.47 1536.82 2156.25 1532.5C2145.19 1529.12 2132.86 1526.43 2119.28 1524.45C2062.83 1516.19 1878.18 1495.22 1878.18 1495.22" fill="white"/>
</mask>
<g mask="url(#mask10_0_1)">
<path fill-rule="evenodd" clip-rule="evenodd" d="M2187.87 1764.02C2191.91 1757.56 2193.39 1751.05 2200.51 1755.25C2205.62 1758.26 2209.72 1763.17 2206.2 1768.74C2203 1773.81 2196.63 1778.49 2190.54 1775.75C2184.68 1773.11 2185.62 1766.92 2187.87 1764.02Z" fill="#FED21C"/>
</g>
<mask id="mask11_0_1" style="mask-type:luminance" maskUnits="userSpaceOnUse" x="1746" y="1495" width="539" height="414">
<path fill-rule="evenodd" clip-rule="evenodd" d="M1747.45 1506.09C1747.45 1506.09 1746.35 1514.13 1746.29 1526.8V1528.99C1746.55 1584.39 1767.37 1718.27 1968.26 1678.31C2071.1 1657.85 2114.61 1626.04 2114.61 1626.04C2114.61 1626.04 2141.43 1717.71 2156.41 1755.32C2171.38 1792.96 2224.27 1908.15 2224.27 1908.15L2284.72 1891.05C2284.72 1891.05 2235.48 1677.2 2197.09 1587.93C2184.31 1558.23 2170.47 1536.82 2156.25 1532.5C2145.19 1529.12 2132.86 1526.43 2119.28 1524.45C2062.83 1516.19 1878.18 1495.22 1878.18 1495.22" fill="white"/>
</mask>
<g mask="url(#mask11_0_1)">
<path fill-rule="evenodd" clip-rule="evenodd" d="M2193.87 1797.49C2190.01 1804.32 2184.8 1803.29 2179.83 1800.87C2174.22 1798.13 2173.72 1792.36 2175.74 1787.56C2177.77 1782.76 2182.78 1781.18 2187.5 1783.87C2192.69 1786.82 2195.71 1791.38 2193.87 1797.49Z" fill="#F28DFD"/>
</g>
<mask id="mask12_0_1" style="mask-type:luminance" maskUnits="userSpaceOnUse" x="1746" y="1495" width="539" height="414">
<path fill-rule="evenodd" clip-rule="evenodd" d="M1747.45 1506.09C1747.45 1506.09 1746.35 1514.13 1746.29 1526.8V1528.99C1746.55 1584.39 1767.37 1718.27 1968.26 1678.31C2071.1 1657.85 2114.61 1626.04 2114.61 1626.04C2114.61 1626.04 2141.43 1717.71 2156.41 1755.32C2171.38 1792.96 2224.27 1908.15 2224.27 1908.15L2284.72 1891.05C2284.72 1891.05 2235.48 1677.2 2197.09 1587.93C2184.31 1558.23 2170.47 1536.82 2156.25 1532.5C2145.19 1529.12 2132.86 1526.43 2119.28 1524.45C2062.83 1516.19 1878.18 1495.22 1878.18 1495.22L1747.45 1506.09Z" fill="white"/>
</mask>
<g mask="url(#mask12_0_1)">
<path fill-rule="evenodd" clip-rule="evenodd" d="M2247.19 1739.16C2246.55 1739.16 2245.9 1739.16 2245.26 1739.16C2235.07 1739.3 2234.52 1740.17 2238.56 1749.61C2239.69 1752.25 2240.75 1754.93 2241.63 1757.66C2242.3 1759.78 2242.91 1762.4 2240.23 1763.36C2237.79 1764.23 2237.04 1761.74 2236.25 1759.97C2234.65 1756.33 2233.23 1752.62 2231.61 1748.99C2229.97 1745.34 2227.87 1745.06 2225.45 1748.31C2222.84 1751.83 2220.25 1755.38 2216.78 1758.1C2215.68 1758.96 2214.63 1759.72 2213.38 1758.58C2212.26 1757.58 2212.13 1756.14 2212.92 1754.96C2215.12 1751.69 2217.53 1748.56 2219.76 1745.31C2222.88 1740.77 2222.03 1738.74 2216.64 1737.84C2213.68 1737.35 2210.67 1737.09 2207.7 1736.65C2206.39 1736.46 2205.01 1736.02 2205.12 1734.31C2205.22 1732.7 2206.63 1732.13 2207.9 1732.07C2211.98 1731.9 2216.06 1731.92 2220.13 1731.85C2223.71 1731.8 2224.69 1729.87 2223.48 1726.64C2222.23 1723.34 2220.74 1720.12 2219.44 1716.83C2218.54 1714.61 2217.04 1711.72 2219.91 1710.4C2222.99 1709 2223.58 1712.69 2224.65 1714.55C2226.17 1717.2 2227.22 1720.16 2228.4 1723.02C2230.29 1727.62 2232.55 1729.21 2235.94 1724.25C2238.16 1720.99 2240.49 1717.82 2242.86 1714.68C2244.28 1712.8 2245.8 1710.06 2248.51 1712.17C2250.92 1714.06 2249.78 1716.49 2248.17 1718.59C2246.04 1721.36 2243.83 1724.09 2241.91 1727.03C2239.54 1730.66 2240.62 1732.83 2244.9 1733.09C2247.9 1733.26 2250.92 1733.18 2253.89 1733.54C2255.47 1733.73 2257.64 1734.02 2257.43 1736.5C2257.24 1738.7 2255.43 1739.23 2253.63 1739.31C2251.48 1739.42 2249.34 1739.34 2247.19 1739.34V1739.16Z" fill="#FED21C"/>
</g>
<mask id="mask13_0_1" style="mask-type:luminance" maskUnits="userSpaceOnUse" x="1746" y="1495" width="539" height="414">
<path fill-rule="evenodd" clip-rule="evenodd" d="M1765.96 1507.23C1765.96 1507.23 1746.35 1514.13 1746.29 1526.8V1528.99C1746.55 1584.39 1767.37 1718.27 1968.26 1678.31C2071.1 1657.85 2114.61 1626.04 2114.61 1626.04C2114.61 1626.04 2141.43 1717.71 2156.41 1755.32C2171.38 1792.96 2224.27 1908.15 2224.27 1908.15L2284.72 1891.05C2284.72 1891.05 2235.48 1677.2 2197.09 1587.93C2184.31 1558.23 2170.47 1536.82 2156.25 1532.5C2145.19 1529.12 2132.86 1526.43 2119.28 1524.45C2062.83 1516.19 1878.18 1495.22 1878.18 1495.22L1765.96 1507.23Z" fill="white"/>
</mask>
<g mask="url(#mask13_0_1)">
<path fill-rule="evenodd" clip-rule="evenodd" d="M2186.57 1822.77C2189.7 1821.3 2193.08 1821.48 2196.35 1821.25C2206.14 1820.54 2215.93 1819.98 2225.72 1819.32C2226.97 1819.24 2228.71 1819.96 2229.25 1818.19C2229.69 1816.7 2228.33 1815.68 2227.47 1814.64C2220.89 1806.65 2214.28 1798.68 2207.69 1790.71C2206.51 1789.28 2205.34 1787.84 2203.76 1785.91C2207.48 1785.23 2209.81 1787.08 2212.14 1788.32C2220.09 1792.58 2227.99 1796.96 2235.79 1801.5C2238.81 1803.25 2240.15 1803.01 2241.01 1799.24C2243.66 1787.66 2246.99 1776.28 2250.75 1765.03C2251.18 1763.74 2251.35 1762.29 2252.83 1761.63C2254.6 1762.65 2253.85 1764.43 2253.91 1765.86C2254.48 1778.09 2254.21 1790.36 2255.22 1802.59C2255.56 1806.83 2256.71 1807.17 2260.13 1805.61C2270.5 1800.9 2280.94 1796.39 2291.4 1791.91C2293.52 1791 2295.63 1789.75 2299.32 1790.24C2295.46 1793.62 2292.3 1796.48 2289.05 1799.22C2281.96 1805.18 2274.9 1811.19 2267.67 1816.95C2264.49 1819.5 2264.63 1820.79 2268.23 1822.65C2278.22 1827.8 2288.07 1833.25 2297.97 1838.59C2299.29 1839.3 2300.82 1839.71 2301.82 1841.65C2299.69 1842.63 2297.62 1842.22 2295.55 1841.93C2285.48 1840.57 2275.39 1839.43 2265.37 1837.75C2261.15 1837.05 2260.08 1838.23 2260.12 1842.5C2260.25 1855.8 2260.03 1869.11 2259.92 1882.41C2259.9 1883.72 2260.38 1885.22 2258.77 1886.43C2256.35 1883.29 2255.53 1879.49 2254.42 1876C2251.53 1866.87 2248.96 1857.62 2246.6 1848.33C2245.48 1843.88 2244.04 1844.22 2241.48 1847.06C2233.17 1856.26 2224.8 1865.39 2216.44 1874.54C2215.78 1875.27 2215.02 1875.92 2213.99 1876.92C2212.57 1871.83 2215.74 1868.36 2217.12 1864.66C2220.14 1856.56 2223.82 1848.69 2227.64 1840.95C2229.35 1837.48 2228.57 1836.5 2225.27 1835.6C2213.68 1832.43 2202.14 1829.05 2190.6 1825.65C2189.14 1825.22 2187.08 1825.41 2186.57 1822.77Z" fill="#FF67FF"/>
</g>
<path fill-rule="evenodd" clip-rule="evenodd" d="M1746.29 1512.96L1754.58 1453.37L1906.68 1454.8L1977.36 1512.96L1866.99 1519.78L1746.29 1512.96Z" fill="#7E4DCD"/>
<path fill-rule="evenodd" clip-rule="evenodd" d="M1802.89 872.051C1794.15 868.607 1784.07 869.639 1775.45 873.387C1766.83 877.12 1759.51 883.365 1753.12 890.261C1747.98 895.821 1743.29 901.958 1740.51 908.998C1737.73 916.045 1737 924.117 1739.73 931.179C1741.47 935.706 1744.53 939.612 1747.96 943.049C1752.86 947.959 1759.43 952.248 1766.27 951.1C1769.98 950.479 1773.25 948.32 1776.28 946.096C1793.76 933.273 1842.62 887.69 1802.89 872.051Z" fill="#EFCD42"/>
<path fill-rule="evenodd" clip-rule="evenodd" d="M2033.62 1262.77L2027.7 1230.05C2021.72 1197.33 2006.81 1196.7 1997.04 1175.75C1987.26 1154.8 2004.6 1139.55 1985.73 1095.86C1966.87 1052.17 1948.13 1063.56 1922.63 1044.75C1897.13 1025.89 1892.37 977.052 1892.37 977.052L1885.51 986.446C1902.56 958.893 1913.45 940.842 1913.45 940.842C1913.45 940.842 1902.38 908.682 1860.51 900.718C1818.64 892.812 1796.05 904.509 1783.44 923.484C1770.81 942.495 1768.36 972.539 1757.19 983.103C1746.02 993.659 1723.27 980.099 1701.57 1008.38C1679.85 1036.7 1687.78 1063.99 1662.85 1073.2C1637.92 1082.41 1613.74 1072.79 1585.54 1116.63C1557.35 1160.47 1556.77 1167.58 1556.77 1167.58C1556.77 1167.58 1563.4 1173.25 1573.69 1181.88C1585.9 1168.36 1614.81 1137.35 1634.48 1124.73L1590.4 1195.73C1744.93 1295.29 1993.96 1268.76 1993.96 1268.76L1989.75 1203.55L2004.28 1267.21L2033.62 1262.77Z" fill="#EFCD42"/>
<path fill-rule="evenodd" clip-rule="evenodd" d="M1829.79 898.422C1829.79 898.422 1803.71 890.191 1779.9 919.766C1756.08 949.333 1763.67 972.77 1747.4 987.428C1731.13 1002.09 1718.33 1007.05 1718.33 1007.05L1757.71 997.551L1778.32 966.489L1829.79 898.422Z" fill="#EFCD42"/>
<path fill-rule="evenodd" clip-rule="evenodd" d="M1758.4 949.43C1758.4 949.43 1777.15 905.198 1816.44 893.465L1819.06 897.805C1819.06 897.805 1782.15 914.614 1764.2 951.459L1758.4 949.43Z" fill="#FF67FF"/>
<path fill-rule="evenodd" clip-rule="evenodd" d="M1770.57 892.549C1770.59 892.441 1770.62 892.253 1770.84 892.072C1770.99 891.935 1771.23 891.812 1771.63 891.726C1775.99 890.744 1788.52 896.217 1795.39 903.639C1782.54 900.087 1770.13 895.083 1770.57 892.549ZM1799.32 906.86L1800.07 906.224L1799.14 904.889C1792.83 895.928 1777.32 888.274 1771.16 889.661C1769.13 890.116 1768.61 891.444 1768.48 892.188C1767.43 898.217 1790.81 904.694 1798 906.535L1799.32 906.86Z" fill="#FF67FF"/>
<path fill-rule="evenodd" clip-rule="evenodd" d="M1791.27 876.966C1791.42 876.619 1791.58 876.41 1791.72 876.28C1791.95 876.085 1792.16 876.092 1792.27 876.092C1794.84 876.128 1797.45 889.248 1798.54 902.533C1792.52 894.403 1789.49 881.081 1791.27 876.966ZM1799.41 906.793L1800.89 905.523C1800.41 897.999 1798.4 874.063 1792.31 873.969C1791.55 873.955 1790.14 874.215 1789.32 876.128C1786.82 881.926 1791.43 898.576 1799.07 906.447L1799.41 906.793Z" fill="#FF67FF"/>
<path fill-rule="evenodd" clip-rule="evenodd" d="M1553.15 1200.59C1552.17 1200.59 1551.37 1199.81 1551.34 1198.83C1550.38 1158.27 1575.9 1119.13 1613.41 1103.64C1621.68 1100.23 1630.43 1097.92 1638.89 1095.69C1644.68 1094.16 1650.68 1092.59 1656.42 1090.67C1673.29 1085.04 1685.1 1076.87 1691.51 1066.39C1694.75 1061.12 1696.67 1055.27 1698.69 1049.09C1700.45 1043.71 1702.27 1038.17 1705.04 1033.06C1711.65 1020.84 1723.7 1011.73 1737.25 1008.66C1738.22 1008.46 1739.19 1009.06 1739.41 1010.02C1739.63 1011 1739.02 1011.97 1738.04 1012.18C1725.49 1015.02 1714.34 1023.47 1708.21 1034.78C1705.61 1039.6 1703.84 1044.99 1702.12 1050.21C1700.12 1056.32 1698.05 1062.64 1694.59 1068.29C1687.72 1079.5 1675.27 1088.19 1657.56 1094.1C1651.71 1096.05 1645.66 1097.64 1639.81 1099.18C1631.46 1101.38 1622.83 1103.65 1614.78 1106.98C1579.2 1121.67 1554.05 1160.27 1554.96 1198.74C1554.98 1199.74 1554.19 1200.57 1553.19 1200.59H1553.15Z" fill="#C0A11F"/>
<path fill-rule="evenodd" clip-rule="evenodd" d="M2045.74 1247.79C2045.44 1247.79 2045.14 1247.71 2044.86 1247.56C2043.99 1247.07 2043.67 1245.97 2044.17 1245.1C2047.98 1238.26 2047.62 1224.8 2043.29 1211.64C2038.32 1196.54 2029.64 1185.24 2019.48 1180.61C2017.18 1179.58 2014.85 1178.56 2012.5 1177.54C1998.37 1171.36 1983.75 1164.97 1974.75 1152.4C1967.82 1142.72 1966.47 1130.66 1965.16 1119C1964.87 1116.43 1964.58 1113.86 1964.24 1111.34C1962.86 1101.28 1958.5 1083.67 1944.79 1078.55C1943.85 1078.2 1943.37 1077.16 1943.73 1076.23C1944.07 1075.29 1945.12 1074.81 1946.05 1075.17C1961.53 1080.94 1966.33 1099.99 1967.81 1110.84C1968.16 1113.4 1968.45 1115.99 1968.75 1118.59C1970.01 1129.8 1971.3 1141.38 1977.69 1150.3C1986.11 1162.06 2000.26 1168.24 2013.95 1174.22C2016.31 1175.26 2018.66 1176.28 2020.97 1177.33C2032.05 1182.36 2041.44 1194.46 2046.72 1210.51C2051.42 1224.8 2051.66 1239.06 2047.31 1246.86C2046.99 1247.45 2046.37 1247.79 2045.74 1247.79Z" fill="#C0A11F"/>
<path fill-rule="evenodd" clip-rule="evenodd" d="M1868.25 1078.34L1866.79 1133.71C1866.31 1153.16 1854.08 1163.27 1834.94 1162.65C1818.6 1162.12 1803.53 1153.19 1802.03 1136.92L1808.51 1049.89L1868.25 1078.34Z" fill="#CDD6F2"/>
<path fill-rule="evenodd" clip-rule="evenodd" d="M1867.34 1105.35C1828.59 1105.38 1803.99 1054.8 1803.99 1054.8L1868.51 1069.29L1867.34 1105.35Z" fill="#00023C" fill-opacity="0.18"/>
<path fill-rule="evenodd" clip-rule="evenodd" d="M1845.16 1079.64C1877.41 1082.02 1905.84 1058.52 1908.68 1032.25L1914.99 970.234C1918.55 937.302 1899.49 907.792 1866.7 903.164C1833.14 898.413 1792.04 920.651 1787.3 954.226L1782.76 1004.16C1779.25 1042.78 1806.76 1074.21 1845.16 1079.64Z" fill="#CDD6F2"/>
<path fill-rule="evenodd" clip-rule="evenodd" d="M1752.56 1003.2C1750.61 1016.96 1760.2 1029.69 1773.96 1031.63C1787.72 1033.58 1800.45 1024 1802.4 1010.24C1804.35 996.473 1794.76 983.751 1781 981.802C1767.24 979.859 1754.51 989.441 1752.56 1003.2Z" fill="#CDD6F2"/>
<path fill-rule="evenodd" clip-rule="evenodd" d="M1785.14 1015.36C1785.14 1015.36 1787.7 997.294 1770.02 997.698Z" fill="#00023C" fill-opacity="0.18"/>
<path fill-rule="evenodd" clip-rule="evenodd" d="M1782 980.547C1782 980.547 1787.95 978.555 1799.38 978.901C1799.42 978.916 1799.48 978.894 1799.52 978.901L1816.5 943.673C1816.5 943.673 1806.47 969.637 1803.45 978.887C1808.63 978.713 1814.5 978.193 1821 977.854C1826.21 965.644 1835.73 941.752 1836.98 928.546C1836.93 932.395 1836.36 959.702 1833.17 977.674C1836.64 977.782 1840.22 978.035 1843.97 978.504C1852.13 979.515 1868.43 982.757 1883.73 985.977C1886.73 975.125 1892.22 953.319 1891.6 940.59C1892.13 943.796 1896.28 969.312 1894.57 988.179C1908.33 991.089 1919.18 993.544 1919.18 993.544C1919.18 993.544 1926.45 963.298 1910.21 930.46C1893.99 897.578 1845.43 898.242 1845.43 898.242C1845.43 898.242 1826.46 895.181 1807.02 911.99C1787.52 928.828 1782 980.547 1782 980.547Z" fill="#EFCD42"/>
<path fill-rule="evenodd" clip-rule="evenodd" d="M1787.9 1003.65C1787.76 1003.98 1787.61 1004.33 1787.3 1004.51C1786.45 1005.01 1785.62 1003.83 1785.35 1002.88C1783.2 995.134 1783.23 986.874 1780.59 979.278C1779.75 976.852 1778.64 974.476 1778.34 971.928C1778.03 969.379 1778.74 966.505 1780.86 965.047C1782.53 963.891 1784.75 963.841 1786.74 964.274C1793.34 965.711 1797.66 970.953 1796.19 977.422C1794.16 986.368 1791.36 995.163 1787.9 1003.65Z" fill="#EFCD42"/>
<path fill-rule="evenodd" clip-rule="evenodd" d="M1871.4 1038.97L1839.42 1029.41C1839.42 1029.41 1837.66 1051.68 1850.5 1054.95C1861.68 1057.81 1871.4 1038.97 1871.4 1038.97Z" fill="#2A0952"/>
<path fill-rule="evenodd" clip-rule="evenodd" d="M1865.47 1014.82C1865.98 1015.88 1866.53 1016.91 1867.04 1017.97C1867.2 1018.29 1867.35 1018.63 1867.5 1018.97C1867.54 1019.07 1867.83 1019.73 1867.6 1019.2C1867.67 1019.36 1867.72 1019.5 1867.79 1019.65C1868.06 1020.34 1868.31 1021.02 1868.48 1021.74C1868.53 1021.89 1868.56 1022.05 1868.6 1022.2C1868.61 1022.27 1868.71 1022.84 1868.64 1022.44C1868.59 1022.04 1868.65 1022.55 1868.65 1022.63C1868.66 1022.76 1868.63 1022.89 1868.65 1023.02C1868.66 1023.13 1868.8 1022.46 1868.66 1022.89C1868.51 1023.35 1868.8 1022.64 1868.73 1022.78C1868.51 1023.16 1869.23 1022.3 1868.76 1022.75C1868.59 1022.91 1868.43 1023.08 1868.26 1023.23C1868.15 1023.33 1868.16 1023.32 1868.29 1023.21C1868.19 1023.29 1868.08 1023.37 1867.97 1023.44C1867.77 1023.57 1867.57 1023.69 1867.36 1023.79C1867.3 1023.83 1866.69 1024.11 1867.05 1023.96C1866.83 1024.05 1866.6 1024.14 1866.37 1024.21C1865.43 1024.53 1864.46 1024.74 1863.49 1024.91C1862.41 1025.12 1861.69 1026.48 1862.02 1027.5C1862.39 1028.66 1863.45 1029.18 1864.6 1028.97C1866.96 1028.53 1869.29 1027.84 1871.15 1026.27C1871.89 1025.64 1872.51 1024.89 1872.73 1023.93C1872.93 1023.04 1872.84 1022.17 1872.68 1021.28C1872.14 1018.24 1870.43 1015.45 1869.1 1012.71C1868.61 1011.71 1867.12 1011.36 1866.22 1011.96C1865.2 1012.61 1864.95 1013.77 1865.47 1014.82Z" fill="#00023C" fill-opacity="0.18"/>
<path fill-rule="evenodd" clip-rule="evenodd" d="M1846.84 997.899C1846.84 997.899 1848.69 1006.06 1842.65 1004.06C1836.61 1002.07 1815.6 995.696 1815.6 995.696C1815.6 995.696 1826.3 978.526 1846.84 997.899Z" fill="#EFF2F9"/>
<path fill-rule="evenodd" clip-rule="evenodd" d="M1849.05 995.614C1848.96 995.398 1848.9 995.167 1848.8 994.943C1843.2 982.776 1826.54 982.329 1816.33 988.336C1815.52 988.813 1814.6 989.304 1813.7 989.065C1813.07 988.892 1812.58 988.401 1812.12 987.924C1810.58 986.3 1808.56 982.906 1805.9 983.686C1804.52 984.09 1804.32 984.618 1804.09 985.614C1803.7 987.304 1807.31 989.441 1808.29 990.343C1810.27 992.17 1812.18 993.975 1814.52 995.441C1814.85 995.636 1815.18 995.831 1815.55 995.889C1816.18 995.975 1816.78 995.65 1817.29 995.275C1820.08 993.21 1821.71 990.777 1825.2 989.556C1827.03 988.914 1829.6 988.48 1831.4 989.426C1830.77 992.618 1827.81 996.213 1826.21 999.109L1844.5 1004.78C1844.5 1004.78 1851.59 1001.35 1849.05 995.614Z" fill="#2A0952"/>
<path fill-rule="evenodd" clip-rule="evenodd" d="M1902.61 1010.38L1873.24 1007.49C1873.24 1007.49 1884.55 992.415 1895.92 996.935C1907.29 1001.45 1902.61 1010.38 1902.61 1010.38Z" fill="#EFF2F9"/>
<path fill-rule="evenodd" clip-rule="evenodd" d="M1914.19 997.377C1912.96 996.727 1911.82 997.153 1910.8 997.925C1909.11 999.211 1906.96 1001.72 1904.96 1000.17C1903.12 998.734 1902.13 996.842 1899.87 995.68C1895.87 993.615 1891.02 992.878 1886.56 993.225C1880.25 993.701 1873.54 996.604 1870.78 1002.65C1870.24 1003.83 1870.11 1005.27 1870.77 1006.39C1871.43 1007.5 1873 1008.08 1874.1 1007.41C1874.58 1007.11 1874.92 1006.63 1875.23 1006.16C1878.45 1001.41 1885.46 995.637 1891.65 998.322C1890.72 1001.83 1887.71 1005.49 1886.02 1008.74L1902.6 1010.38C1902.6 1010.38 1905.48 1008.52 1905.74 1005.56C1906.1 1005.37 1906.45 1005.2 1906.82 1005.12C1908.58 1003.01 1911.58 1003.1 1913.54 1001.35C1914.19 1000.72 1914.83 1000.09 1915.47 999.456C1915.45 998.51 1915.36 998.005 1914.19 997.377Z" fill="#2A0952"/>
<path fill-rule="evenodd" clip-rule="evenodd" d="M1838.06 979.425C1843.44 978.703 1843.38 970.76 1838.01 969.952C1833.35 969.258 1827.4 969.266 1823.89 972.731C1817.46 979.071 1832.14 980.082 1837.9 979.446C1837.95 979.439 1838.01 979.439 1838.06 979.425Z" fill="#2A0952"/>
<path fill-rule="evenodd" clip-rule="evenodd" d="M1892.41 986.257C1888.21 984.546 1889.94 978.113 1894.45 978.589C1898.38 979.008 1903.2 980.272 1905.32 983.817C1909.19 990.315 1897.08 988.033 1892.55 986.315C1892.51 986.293 1892.46 986.279 1892.41 986.257Z" fill="#2A0952"/>
<path fill-rule="evenodd" clip-rule="evenodd" d="M1835.01 1022.23C1833.14 1024.85 1830.18 1026.68 1827.02 1027.44C1823.37 1028.31 1819.49 1027.84 1815.96 1026.57C1813.65 1025.73 1811.41 1024.52 1809.8 1022.67C1807.01 1019.48 1806.82 1013.6 1807.75 1009.64C1808.31 1007.26 1809.69 1004.99 1811.81 1003.78C1814.93 1002.02 1818.33 1001.89 1821.75 1002.51C1824.77 1003.08 1827.84 1003.72 1830.54 1005.19C1835.92 1008.14 1838.79 1015.34 1835.8 1020.95C1835.57 1021.4 1835.3 1021.82 1835.01 1022.23Z" fill="#FF37B8" fill-opacity="0.5"/>
<path fill-rule="evenodd" clip-rule="evenodd" d="M1812.66 1017.52C1812.29 1017.52 1811.92 1017.4 1811.6 1017.17C1810.79 1016.58 1810.62 1015.45 1811.2 1014.65L1815.95 1008.15C1816.54 1007.35 1817.67 1007.18 1818.47 1007.75C1819.27 1008.35 1819.45 1009.48 1818.86 1010.28L1814.12 1016.77C1813.76 1017.26 1813.22 1017.52 1812.66 1017.52Z" fill="#FFD0F6"/>
<path fill-rule="evenodd" clip-rule="evenodd" d="M1826.4 1022.94H1826.3C1825.31 1022.88 1824.55 1022.03 1824.6 1021.03L1825.05 1013C1825.1 1012.01 1825.91 1011.38 1826.95 1011.3C1827.95 1011.36 1828.71 1012.21 1828.66 1013.2L1828.21 1021.23C1828.15 1022.19 1827.36 1022.94 1826.4 1022.94Z" fill="#FFD0F6"/>
<path fill-rule="evenodd" clip-rule="evenodd" d="M1818.29 1020.91C1818.01 1020.91 1817.73 1020.84 1817.47 1020.71C1816.58 1020.25 1816.23 1019.17 1816.69 1018.28L1820.88 1010.12C1821.32 1009.23 1822.42 1008.88 1823.3 1009.33C1824.19 1009.79 1824.54 1010.88 1824.08 1011.77L1819.89 1019.92C1819.58 1020.55 1818.94 1020.91 1818.29 1020.91Z" fill="#FFD0F6"/>
<path fill-rule="evenodd" clip-rule="evenodd" d="M1883.41 1030.36C1884.99 1032.57 1887.47 1034.1 1890.12 1034.72C1893.17 1035.45 1896.42 1035.06 1899.38 1034C1901.32 1033.3 1903.19 1032.3 1904.54 1030.74C1906.88 1028.07 1907.03 1023.14 1906.25 1019.82C1905.79 1017.83 1904.63 1015.93 1902.85 1014.92C1900.24 1013.43 1897.39 1013.32 1894.53 1013.85C1891.99 1014.32 1889.43 1014.86 1887.17 1016.09C1882.66 1018.56 1880.25 1024.59 1882.76 1029.3C1882.95 1029.67 1883.17 1030.02 1883.41 1030.36Z" fill="#FF37B8" fill-opacity="0.5"/>
<path fill-rule="evenodd" clip-rule="evenodd" d="M1902.14 1026.71C1901.59 1026.71 1901.04 1026.46 1900.69 1025.97L1896.71 1020.53C1896.12 1019.72 1896.29 1018.59 1897.1 1018C1897.9 1017.42 1899.03 1017.58 1899.62 1018.4L1903.6 1023.84C1904.19 1024.64 1904.01 1025.77 1903.21 1026.36C1902.89 1026.59 1902.51 1026.71 1902.14 1026.71Z" fill="#FFD0F6"/>
<path fill-rule="evenodd" clip-rule="evenodd" d="M1890.63 1031.25C1889.68 1031.25 1888.88 1030.51 1888.82 1029.55L1888.45 1022.82C1888.39 1021.82 1889.16 1020.97 1890.15 1020.91C1891.28 1021.01 1892 1021.63 1892.05 1022.62L1892.43 1029.34C1892.48 1030.34 1891.73 1031.19 1890.73 1031.25H1890.63Z" fill="#FFD0F6"/>
<path fill-rule="evenodd" clip-rule="evenodd" d="M1897.42 1029.55C1896.77 1029.55 1896.14 1029.19 1895.82 1028.57L1892.31 1021.74C1891.86 1020.85 1892.2 1019.77 1893.09 1019.31C1893.99 1018.87 1895.07 1019.2 1895.52 1020.09L1899.03 1026.92C1899.49 1027.81 1899.13 1028.89 1898.25 1029.36C1897.99 1029.49 1897.7 1029.55 1897.42 1029.55Z" fill="#FFD0F6"/>
<mask id="mask14_0_1" style="mask-type:luminance" maskUnits="userSpaceOnUse" x="2077" y="1064" width="85" height="132">
<path fill-rule="evenodd" clip-rule="evenodd" d="M2077.83 1064.9H2161.1V1195.29H2077.83V1064.9Z" fill="white"/>
</mask>
<g mask="url(#mask14_0_1)">
<path fill-rule="evenodd" clip-rule="evenodd" d="M2155.79 1088.17C2161.13 1099.63 2158.89 1135.81 2160.52 1146.33C2162.12 1156.82 2160.28 1166.68 2156.85 1175.81C2153.42 1184.99 2155.44 1190.98 2155.44 1190.98L2122.46 1195.29C2122.46 1195.29 2114.97 1193.95 2103.71 1172.1C2092.41 1150.26 2073.76 1113.18 2078.62 1108.26C2083.34 1103.52 2102.9 1125.15 2106.9 1129.88L2107.27 1130.34C2107.49 1130.62 2107.61 1130.46 2107.7 1129.94C2108.4 1123.88 2099.04 1067.5 2105.77 1065.17C2107.82 1064.5 2112.3 1065.1 2117.73 1066.61C2118.1 1066.7 2118.48 1066.81 2118.88 1066.95C2122.87 1068.11 2127.34 1069.7 2131.74 1071.57C2132.14 1071.71 2132.5 1071.87 2132.9 1072.08C2137.27 1073.97 2141.57 1076.16 2145.26 1078.43C2145.64 1078.7 2146 1078.92 2146.37 1079.16C2150.94 1082.1 2154.44 1085.22 2155.79 1088.17Z" fill="#CDD6F2"/>
</g>
<path fill-rule="evenodd" clip-rule="evenodd" d="M2132.02 1154.09C2132.02 1154.09 2132.01 1154.1 2132 1154.11C2131.74 1154.28 2131.4 1154.23 2131.21 1153.97C2123.19 1142.72 2107.13 1130.91 2106.96 1130.79C2106.71 1130.61 2106.66 1130.25 2106.84 1130.01C2107.02 1129.76 2107.37 1129.7 2107.62 1129.88C2107.79 1130 2124 1141.91 2132.13 1153.33C2132.31 1153.57 2132.26 1153.91 2132.02 1154.09Z" fill="#9387BE"/>
<path fill-rule="evenodd" clip-rule="evenodd" d="M2118.87 1066.95L2121.65 1120.91C2121.63 1121.1 2121.58 1121.25 2121.44 1121.36C2121.34 1121.45 2121.24 1121.47 2121.08 1121.48C2120.79 1121.48 2120.56 1121.27 2120.53 1120.95L2117.72 1066.6C2118.1 1066.7 2118.48 1066.8 2118.87 1066.95Z" fill="#9387BE"/>
<path fill-rule="evenodd" clip-rule="evenodd" d="M2132.9 1072.08L2134.07 1118.9C2134.08 1119.06 2134 1119.24 2133.86 1119.35C2133.79 1119.41 2133.66 1119.46 2133.56 1119.48C2133.21 1119.48 2132.98 1119.26 2132.95 1118.94L2131.74 1071.57C2132.14 1071.71 2132.5 1071.87 2132.9 1072.08Z" fill="#9387BE"/>
<path fill-rule="evenodd" clip-rule="evenodd" d="M2146.37 1079.15L2147.46 1120.32C2147.44 1120.51 2147.36 1120.69 2147.26 1120.78C2147.15 1120.86 2147.01 1120.91 2146.89 1120.9C2146.6 1120.9 2146.31 1120.67 2146.34 1120.36L2145.26 1078.43C2145.64 1078.7 2146 1078.92 2146.37 1079.15Z" fill="#9387BE"/>
<path fill-rule="evenodd" clip-rule="evenodd" d="M2090.75 1220.56C2090.75 1220.56 2137.78 1230.93 2170.3 1262.16L2109.6 1247.71L2090.75 1220.56Z" fill="#C4B8EE"/>
<path fill-rule="evenodd" clip-rule="evenodd" d="M2150.62 1276.28C2158.79 1274.58 2158.17 1273.1 2157.52 1264.04C2156.49 1249.86 2155.49 1235.69 2154.47 1221.52C2153.26 1204.76 2159.63 1162.48 2136.39 1158.72C2111.06 1154.61 2110.69 1205.26 2106.54 1222.79C2104.81 1230.15 2103.07 1237.5 2101.34 1244.85C2099.97 1250.64 2095.55 1260.2 2096.27 1266.03C2097.58 1276.64 2115.99 1278.79 2124.89 1279.05C2133 1279.29 2141.03 1278.1 2148.97 1276.6C2149.56 1276.49 2150.11 1276.39 2150.62 1276.28Z" fill="#CDD6F2"/>
<path fill-rule="evenodd" clip-rule="evenodd" d="M1942.49 1303.11L1929.2 1483.68C1908.92 1488.49 1880.97 1490.89 1845.35 1490.87C1811.85 1490.86 1778.36 1488.72 1744.86 1484.45C1741.23 1483.99 1738.52 1480.88 1738.55 1477.22L1740.3 1303.11H1942.49Z" fill="#CDD6F2"/>
<path fill-rule="evenodd" clip-rule="evenodd" d="M1807.92 1088.61L1786.93 1094.96L1796.55 1409.35C1796.55 1409.35 1921.03 1407.15 1921.03 1409.35C1921.03 1410.39 1934.05 1270.16 1921.93 1217C1908.59 1158.49 1883.91 1096.83 1883.91 1096.83L1871 1094.86C1868.27 1111.22 1835.86 1129.6 1807.92 1088.61Z" fill="#F376DA"/>
<path fill-rule="evenodd" clip-rule="evenodd" d="M1927.23 1248.47C1927.53 1251.1 1927.81 1253.72 1928.04 1256.29H1798.86L1798.29 1248.47H1927.23Z" fill="#EFF2F9"/>
<path fill-rule="evenodd" clip-rule="evenodd" d="M1920.14 1209.46C1920.76 1211.97 1921.36 1214.49 1921.93 1217.01C1921.95 1217.1 1921.97 1217.18 1921.98 1217.27H1795.98L1795.4 1209.46H1920.14Z" fill="#EFF2F9"/>
<path fill-rule="evenodd" clip-rule="evenodd" d="M1801.17 1287.48H1929.61C1929.64 1290.21 1929.63 1292.81 1929.61 1295.29H1801.75L1801.17 1287.48Z" fill="#EFF2F9"/>
<path fill-rule="evenodd" clip-rule="evenodd" d="M1896.07 1131.44C1896.97 1133.93 1897.91 1136.54 1898.87 1139.24H1790.21L1789.63 1131.44H1896.07Z" fill="#EFF2F9"/>
<path fill-rule="evenodd" clip-rule="evenodd" d="M1909.25 1170.45C1910.05 1173.02 1910.85 1175.62 1911.63 1178.26H1793.09L1792.52 1170.45H1909.25Z" fill="#EFF2F9"/>
<path fill-rule="evenodd" clip-rule="evenodd" d="M1927.88 1326.5C1928.18 1329.12 1928.46 1331.74 1928.69 1334.31H1799.51L1798.94 1326.5H1927.88Z" fill="#EFF2F9"/>
<path fill-rule="evenodd" clip-rule="evenodd" d="M1801.82 1365.51H1930.26C1930.29 1368.23 1930.29 1370.84 1930.26 1373.31H1802.4L1801.82 1365.51Z" fill="#EFF2F9"/>
<path fill-rule="evenodd" clip-rule="evenodd" d="M1801.82 1387.17H1930.26C1930.29 1389.89 1930.29 1392.5 1930.26 1394.98H1802.4L1801.82 1387.17Z" fill="#EFF2F9"/>
<path d="M1803.46 1421.93V1450.12" stroke="#2A0952" stroke-width="0.141"/>
<path d="M1792.21 1421.93V1450.12" stroke="#2A0952" stroke-width="0.141"/>
<path fill-rule="evenodd" clip-rule="evenodd" d="M1803.4 1089.98C1803.4 1089.98 1744.7 1105.7 1721.75 1125.23C1698.8 1144.75 1647.6 1260.11 1628.99 1308.79C1602.38 1378.35 1587.97 1486.49 1682.69 1469.89C1777.41 1453.29 1792.51 1448.42 1792.51 1448.42V1401.06L1827.7 1385.92L1832.58 1238.49L1803.4 1089.98Z" fill="#432C82"/>
<path fill-rule="evenodd" clip-rule="evenodd" d="M1810 1349.8C1810 1349.8 1825.27 1395.47 1815.16 1439.4L1796.38 1379.92L1810 1349.8Z" fill="#C4B8EE"/>
<path fill-rule="evenodd" clip-rule="evenodd" d="M1871.88 1094.96C1927.58 1100.49 1952.45 1143.28 1971.89 1167.69C1991.34 1192.11 2064.16 1287.31 2064.16 1287.31L2064.04 1289.11L2069.48 1295.24C2069.48 1295.24 2079.59 1269.3 2095.6 1229.27L2163.47 1261.26C2158.6 1292.02 2153.23 1325.97 2150.77 1342.1C2145.68 1375.38 2132.14 1443.68 2074.01 1443.68C2059 1443.68 1950.28 1333.22 1950.28 1333.22L1950.81 1429.95H1898.87L1902.64 1237.95L1871.88 1094.96Z" fill="#432C82"/>
<path fill-rule="evenodd" clip-rule="evenodd" d="M1993.44 1272.87L1991.83 1392.46C1991.8 1394.67 1976.09 1397 1956.74 1397.66C1937.39 1398.33 1921.56 1397.08 1921.38 1394.87L1911.6 1275.67L1993.44 1272.87Z" fill="#FCFCFC"/>
<path fill-rule="evenodd" clip-rule="evenodd" d="M1922.26 1297.45C1927.72 1296.28 1926.52 1298.29 1934.91 1296.28C1943.31 1294.27 1945.94 1297.21 1952.25 1295.93C1958.55 1294.66 1962.44 1297.28 1968.55 1296.38C1974.65 1295.49 1977.69 1297.6 1982.3 1296.38C1984.97 1295.68 1987.21 1295.7 1988.65 1295.84L1987.44 1385.78C1987.41 1387.74 1973.56 1389.79 1956.49 1390.38C1939.42 1390.96 1925.46 1389.87 1925.31 1387.91L1917.93 1298.01C1919.42 1297.91 1920.92 1297.73 1922.26 1297.45Z" fill="#FFD73D"/>
<path fill-rule="evenodd" clip-rule="evenodd" d="M1934.91 1296.28C1943.31 1294.27 1945.94 1297.21 1952.25 1295.93C1958.55 1294.66 1962.44 1297.28 1968.55 1296.38C1974.65 1295.49 1977.69 1297.6 1982.3 1296.38C1984.97 1295.68 1987.21 1295.7 1988.65 1295.84L1988.38 1315.87C1987.42 1315.78 1985.64 1315.78 1982.56 1316.26C1977.3 1317.08 1973.53 1318.74 1966.52 1317.79C1959.52 1316.84 1954.08 1318.59 1950.28 1318.78C1946.48 1318.97 1942.42 1317.92 1938.21 1318.35C1933.99 1318.77 1930.84 1319.6 1927.88 1319.55C1926.14 1319.52 1922.44 1319.37 1919.67 1319.26L1917.93 1298.01C1919.42 1297.91 1920.92 1297.73 1922.26 1297.44C1927.72 1296.27 1926.52 1298.29 1934.91 1296.28Z" fill="#FFE283"/>
<path fill-rule="evenodd" clip-rule="evenodd" d="M1931.97 1341.2C1932.05 1343.67 1934.11 1345.59 1936.58 1345.51C1939.04 1345.42 1940.97 1343.36 1940.88 1340.9C1940.8 1338.44 1938.73 1336.51 1936.27 1336.59C1933.81 1336.68 1931.88 1338.74 1931.97 1341.2Z" fill="#FCFCFC"/>
<path fill-rule="evenodd" clip-rule="evenodd" d="M1943.76 1350.9C1943.78 1351.66 1944.42 1352.25 1945.18 1352.23C1945.94 1352.21 1946.54 1351.57 1946.51 1350.81C1946.48 1350.05 1945.85 1349.46 1945.09 1349.48C1944.33 1349.51 1943.73 1350.15 1943.76 1350.9Z" fill="#FCFCFC"/>
<path fill-rule="evenodd" clip-rule="evenodd" d="M1956.99 1360.39C1957.11 1363.95 1960.1 1366.74 1963.66 1366.61C1967.22 1366.49 1970 1363.51 1969.88 1359.95C1969.76 1356.39 1966.77 1353.61 1963.22 1353.73C1959.66 1353.85 1956.87 1356.83 1956.99 1360.39Z" fill="#FCFCFC"/>
<path fill-rule="evenodd" clip-rule="evenodd" d="M1948.38 1374.65C1948.42 1375.99 1949.55 1377.04 1950.89 1376.99C1952.24 1376.94 1953.28 1375.83 1953.24 1374.48C1953.2 1373.14 1952.07 1372.09 1950.73 1372.13C1949.39 1372.18 1948.34 1373.31 1948.38 1374.65Z" fill="#FCFCFC"/>
<path fill-rule="evenodd" clip-rule="evenodd" d="M1784.04 1365.45C1783.99 1357.39 1785.52 1357.66 1794.21 1356.45C1807.81 1354.54 1821.4 1352.62 1835 1350.7C1849.93 1348.59 1864.87 1346.49 1879.81 1344.39C1879.81 1344.39 1918.09 1316.3 1933.48 1313.37C1948.87 1310.45 1974.63 1308.69 1974.63 1313.37C1974.63 1318.06 1938.34 1325.08 1938.34 1325.08C1947.85 1324.43 1957.52 1324.14 1967.02 1324.87C1970.27 1325.12 1978.25 1324.99 1980.44 1328.15C1984.43 1333.91 1975.31 1352.54 1970.99 1356.77C1967.56 1360.12 1961.8 1359.85 1957.23 1359.92C1955.49 1359.95 1948.47 1358.59 1947.12 1359.6C1947.12 1359.6 1914.34 1384.19 1888.59 1374.83L1843.52 1396.23C1836.93 1399.36 1830.33 1402.5 1823.73 1405.63C1818.55 1408.09 1810.41 1414.21 1804.75 1414.71C1794.47 1415.62 1788.71 1398.68 1786.65 1390.31C1784.78 1382.71 1784.27 1374.88 1784.07 1367.07C1784.06 1366.49 1784.04 1365.95 1784.04 1365.45Z" fill="#CDD6F2"/>
<path fill-rule="evenodd" clip-rule="evenodd" d="M1786.93 1429.25L1769.01 1431.21C1766.82 1403.76 1770.29 1374.88 1772.07 1362.71C1772.6 1359.14 1775.33 1356.32 1778.87 1355.66L1810 1349.8C1808.35 1389.88 1812.84 1424.65 1815.16 1439.4C1815.83 1443.66 1813.09 1447.69 1808.88 1448.6L1780.66 1454.69C1776.37 1455.62 1772.08 1452.89 1771.27 1448.6C1770.53 1444.73 1769.95 1440.75 1769.51 1436.71L1786.93 1429.25Z" fill="#6C5DE0"/>
<mask id="mask15_0_1" style="mask-type:luminance" maskUnits="userSpaceOnUse" x="2079" y="1220" width="97" height="86">
<path fill-rule="evenodd" clip-rule="evenodd" d="M2079.26 1220.56H2175.38V1305H2079.26V1220.56Z" fill="white"/>
</mask>
<g mask="url(#mask15_0_1)">
<path fill-rule="evenodd" clip-rule="evenodd" d="M2147.08 1281.16L2139.55 1297.55C2114.87 1285.32 2091.88 1267.5 2082.35 1259.73C2079.55 1257.45 2078.53 1253.65 2079.78 1250.28L2090.75 1220.56C2124.29 1242.57 2156.44 1256.58 2170.29 1262.16C2174.29 1263.77 2176.33 1268.2 2174.95 1272.28L2165.69 1299.62C2164.28 1303.77 2159.74 1306.05 2155.63 1304.54C2151.94 1303.19 2148.23 1301.63 2144.54 1299.94L2147.08 1281.16Z" fill="#6C5DE0"/>
</g>
<path fill-rule="evenodd" clip-rule="evenodd" d="M1588.84 1490.25C1588.11 1481.66 1587.37 1469.36 1586.91 1460.74C1586.15 1446.4 1585.55 1432.04 1585 1417.68C1584.8 1412.62 1586.46 1410.92 1591.53 1410.05C1597.63 1408.98 1603.82 1408.52 1610 1408.12C1613.84 1407.87 1617.64 1407.07 1621.49 1406.95C1622.64 1406.91 1626.57 1406.92 1627.48 1407.77C1627.92 1408.19 1627.65 1411.74 1627.39 1411.74C1618.89 1411.97 1610.37 1411.17 1601.93 1412.74C1600.31 1413.04 1597.86 1412.97 1597.6 1414.6C1597.24 1416.83 1600.05 1416.28 1601.36 1417.14C1601.72 1417.37 1602.26 1417.35 1602.71 1417.43C1614.69 1419.41 1626.68 1421.37 1638.89 1420.19C1647.63 1419.34 1656.33 1418.18 1664.91 1416.28C1666.33 1415.97 1668.42 1415.54 1668.27 1413.67C1668.08 1411.3 1665.79 1411.79 1664.19 1411.78C1653.81 1411.73 1643.44 1411.76 1633.06 1411.76C1632.27 1410.61 1632.35 1409.37 1632.74 1408.11C1638.87 1405.83 1645.01 1408.26 1651.13 1408.08C1656.51 1408.41 1661.89 1408.8 1667.27 1409.04C1685.36 1409.87 1673.82 1484.18 1673.33 1490.01L1588.84 1490.25Z" fill="#FF67FF"/>
<path fill-rule="evenodd" clip-rule="evenodd" d="M1627.39 1411.74C1627.9 1413.22 1627.84 1414.73 1627.66 1416.27C1627.43 1418.27 1628.63 1418.97 1630.4 1419.09C1632.35 1419.22 1633.2 1418.2 1633.18 1416.34C1633.17 1414.82 1633.11 1413.29 1633.06 1411.77C1643.44 1411.76 1653.82 1411.73 1664.19 1411.78C1665.79 1411.79 1668.08 1411.3 1668.27 1413.68C1668.42 1415.54 1666.33 1415.97 1664.91 1416.28C1656.33 1418.18 1647.63 1419.34 1638.89 1420.19C1626.67 1421.37 1614.69 1419.41 1602.71 1417.43C1602.26 1417.35 1601.72 1417.37 1601.36 1417.14C1600.05 1416.28 1597.24 1416.83 1597.6 1414.6C1597.86 1412.97 1600.31 1413.04 1601.93 1412.74C1610.37 1411.17 1618.89 1411.97 1627.39 1411.74Z" fill="#503890"/>
<path fill-rule="evenodd" clip-rule="evenodd" d="M1632.57 1375.44C1630.39 1378.58 1628.7 1381.93 1627.79 1385.67L1627.64 1385.86C1623.35 1381.6 1623.3 1376.29 1623.87 1370.8C1623.99 1369.75 1624.46 1369.07 1625.42 1368.72C1630.69 1366.79 1632.91 1361.99 1635.65 1357.72C1636.58 1356.27 1638.18 1354.33 1636.28 1352.74C1634.46 1351.23 1632.47 1352.5 1630.75 1353.62C1628.73 1354.94 1627.62 1357.38 1625.17 1358.39C1624.32 1350.92 1624.73 1350.12 1630.6 1346.96C1633.76 1345.25 1636.75 1343.34 1638.92 1340.38C1639.92 1339.02 1640.28 1337.56 1639.41 1336.04C1638.58 1334.58 1637.11 1334.86 1635.71 1334.72C1633.09 1334.47 1631.48 1336.96 1628.76 1337.3C1629.05 1332.64 1630.91 1328.98 1633.21 1325.48C1635.53 1321.97 1637.37 1318.2 1638.62 1314.21C1639.12 1312.63 1639.32 1310.65 1637.31 1309.74C1635.43 1308.89 1634.53 1310.48 1633.53 1311.64C1630.46 1315.25 1629.14 1319.74 1627.34 1324.32C1625.82 1322.86 1625.61 1321.12 1624.94 1319.59C1623.95 1317.33 1622.93 1315.07 1621.76 1312.89C1621.08 1311.61 1619.94 1310.57 1618.36 1311.35C1616.98 1312.05 1617.18 1313.5 1617.58 1314.66C1618.64 1317.72 1618.87 1321.22 1621.05 1323.72C1626.39 1329.8 1624.75 1336.08 1622.04 1343.42C1620.2 1339.78 1618.54 1336.86 1616.08 1334.51C1614.93 1333.41 1613.62 1332.98 1612.28 1333.48C1610.67 1334.08 1610.66 1335.85 1611.02 1337.1C1611.84 1339.98 1612.16 1342.94 1614.89 1345.21C1617.26 1347.19 1620.27 1349.33 1620.46 1352.88C1620.8 1359.11 1618.91 1365.23 1619.7 1371.57C1617.68 1369.98 1616.44 1368.16 1614.79 1366.85C1611.41 1364.17 1610.37 1360.91 1610.74 1356.68C1611.09 1352.69 1610.87 1348.6 1609.68 1344.7C1609.06 1342.68 1608.48 1340.14 1605.56 1340.53C1602.58 1340.94 1602.14 1343.29 1602.37 1345.8C1602.71 1349.38 1603.13 1352.95 1603.54 1356.79C1599.28 1355.46 1597.73 1353.43 1598.11 1349.1C1598.47 1344.88 1597.62 1340.46 1595.51 1336.51C1594.69 1334.99 1593.51 1334.07 1591.77 1334.41C1589.98 1334.76 1590.04 1336.37 1589.87 1337.74C1589.3 1342.14 1589.77 1346.71 1590.35 1351.09C1587.63 1351.95 1578.94 1347.26 1577.84 1352.27C1577.42 1354.25 1579.04 1354.95 1580.37 1355.68C1583.37 1357.32 1586.67 1356.79 1589.9 1356.88C1592.28 1356.94 1594.97 1357.75 1595.8 1359.7C1596.71 1361.88 1593.76 1362.14 1592.32 1363.07C1591.14 1363.85 1589.94 1364.76 1590.42 1366.4C1590.8 1367.75 1592.03 1368.17 1593.32 1368.32C1596.87 1368.7 1600.42 1369.06 1603.86 1367.79C1606.17 1366.94 1608.08 1367.41 1609.71 1369.2C1616.93 1377.06 1622.2 1385.96 1624.56 1396.45C1624.22 1396.83 1623.87 1397.21 1623.54 1397.59C1619.85 1395.57 1617.71 1391.62 1613.89 1389.8C1611.96 1388.89 1609.61 1387.67 1607.94 1389.7C1606.22 1391.8 1608.51 1393.45 1609.71 1394.83C1613.96 1399.65 1619.47 1402.71 1625.29 1405.24C1628.89 1406.48 1627.07 1409.45 1627.39 1411.74C1627.9 1413.22 1627.84 1414.73 1627.66 1416.27C1627.43 1418.27 1628.63 1418.97 1630.39 1419.08C1632.36 1419.21 1633.19 1418.19 1633.18 1416.34C1633.17 1414.82 1633.11 1413.29 1633.06 1411.76C1632.27 1410.61 1632.35 1409.37 1632.74 1408.11C1633.17 1406.72 1631.95 1403.7 1631.71 1402.26C1631.35 1400.03 1631.02 1397.77 1631.18 1395.51C1631.51 1390.86 1634.38 1387 1636.65 1383.08C1637.66 1381.33 1640.16 1377.1 1639.31 1374.98C1638.05 1371.83 1633.96 1373.45 1632.57 1375.44Z" fill="#C664E9"/>
<path fill-rule="evenodd" clip-rule="evenodd" d="M1617.81 1459.41C1617.81 1459.15 1615.18 1457.18 1614.83 1456.59C1614.23 1455.55 1613.99 1454.4 1614.12 1453.21C1614.48 1449.97 1616.43 1448.64 1619.25 1447.78C1622.82 1446.69 1621.75 1441.51 1625.45 1439.93C1628.49 1438.62 1631.95 1440.25 1634.01 1442.54C1636.62 1442.98 1639.4 1440.89 1642.08 1442.71C1643.65 1443.78 1644.58 1445.25 1644.9 1447.18C1645.2 1448.98 1644.16 1450.61 1644.51 1452.43C1644.93 1453.29 1645.76 1453.84 1646.44 1454.52C1650.01 1458.14 1648.18 1464.22 1643.38 1464.89C1643.04 1464.94 1642.7 1464.99 1642.6 1465C1640.42 1465.34 1639.56 1470.25 1637.87 1471.52C1636.81 1472.32 1635.61 1473.01 1634.29 1473.19C1630.96 1473.65 1630.43 1470.69 1628.03 1469.47C1627 1469.77 1625.84 1470.12 1624.67 1470.44C1621.52 1471.3 1619.43 1470.2 1618.28 1467.15C1617.62 1465.41 1617.02 1463.73 1617.82 1461.83C1618.1 1461.16 1617.83 1460.27 1617.81 1459.41Z" fill="#4DDEFF"/>
<path fill-rule="evenodd" clip-rule="evenodd" d="M1635.05 1457.65C1635.05 1459.78 1633.33 1461.51 1631.2 1461.51C1629.06 1461.51 1627.33 1459.78 1627.33 1457.65C1627.33 1455.52 1629.06 1453.79 1631.2 1453.79C1633.33 1453.79 1635.05 1455.52 1635.05 1457.65Z" fill="#EFF2F9"/>
<path fill-rule="evenodd" clip-rule="evenodd" d="M2239.15 1487.09H1878.99C1878.18 1487.09 1877.53 1486.44 1877.53 1485.64C1877.53 1474.45 1886.59 1465.39 1897.78 1465.39H2239.15C2239.95 1465.39 2240.6 1466.04 2240.6 1466.84V1485.64C2240.6 1486.44 2239.95 1487.09 2239.15 1487.09Z" fill="#8A60E2"/>
<path fill-rule="evenodd" clip-rule="evenodd" d="M2359.4 1288.1L2314.44 1478.21C2313.24 1483.28 2308.72 1486.85 2303.52 1486.85H2026.59C2019.34 1486.85 2014 1480.09 2015.66 1473.04L2060.62 1282.94C2061.81 1277.87 2066.34 1274.29 2071.54 1274.29H2348.47C2355.72 1274.29 2361.07 1281.05 2359.4 1288.1Z" fill="#432C82"/>
<path fill-rule="evenodd" clip-rule="evenodd" d="M2307.57 1467.69H2059.89C2058.77 1467.69 2057.86 1466.79 2057.86 1465.67C2057.86 1464.54 2058.77 1463.63 2059.89 1463.63H2307.57C2308.69 1463.63 2309.6 1464.54 2309.6 1465.67C2309.6 1466.79 2308.69 1467.69 2307.57 1467.69Z" fill="#FF67FF"/>
<path fill-rule="evenodd" clip-rule="evenodd" d="M2176.05 1382.5C2176.35 1396.56 2200.19 1414.19 2200.19 1414.19C2200.19 1414.19 2227.88 1396.56 2231.24 1382.5C2234.89 1367.25 2217.47 1362.56 2204.57 1374.06C2194.18 1362.56 2175.73 1367.25 2176.05 1382.5Z" fill="#FF67FF"/>
<path fill-rule="evenodd" clip-rule="evenodd" d="M2082.52 1274.29L2034.65 1486.85H2026.59C2019.34 1486.85 2014 1480.09 2015.66 1473.04L2060.61 1282.93C2061.81 1277.86 2066.33 1274.29 2071.54 1274.29H2082.52Z" fill="#8A60E2"/>
<path fill-rule="evenodd" clip-rule="evenodd" d="M2337.45 1502.14V1516.77C2337.45 1525.19 2332.36 1532.01 2326.08 1532.01H1535.31C1529.04 1532.01 1523.95 1525.19 1523.95 1516.77V1502.14C1523.95 1493.72 1529.04 1486.91 1535.31 1486.91H2326.08C2332.36 1486.91 2337.45 1493.72 2337.45 1502.14Z" fill="#FFB700"/>
<path fill-rule="evenodd" clip-rule="evenodd" d="M2281.93 1569.62H1602.13C1581.26 1569.62 1564.34 1552.7 1564.34 1531.84H2319.71C2319.71 1552.7 2302.8 1569.62 2281.93 1569.62Z" fill="#EA9800"/>
<path fill-rule="evenodd" clip-rule="evenodd" d="M1567.63 2103.17L1696.33 1569.62H1651.13L1522.43 2103.17H1567.63Z" fill="#FFB700"/>
<path fill-rule="evenodd" clip-rule="evenodd" d="M2327.35 2103.17L2198.65 1569.62H2243.85L2372.54 2103.17H2327.35Z" fill="#FFB700"/>
</svg>
